<svg xmlns="http://www.w3.org/2000/svg" viewBox="0 0 45 45"><defs><style>.cls-1{fill:#fa7564;}.cls-1,.cls-3{fill-rule:evenodd;}.cls-2{fill:#fff;}.cls-3{fill:#18acb6;}</style></defs><g id="Migration"><g id="Cloud-Stargagy"><path class="cls-1" d="M0,0H45V45H0Z"/><path class="cls-2" d="M24.67,29a.62.62,0,0,1-.62-.62V26.52a.62.62,0,0,1,1.24,0v1.85A.62.62,0,0,1,24.67,29Z"/><path class="cls-2" d="M24.67,33.18a.62.62,0,0,1-.62-.62V30.47a.62.62,0,1,1,1.24,0v2.09A.62.62,0,0,1,24.67,33.18Z"/><path class="cls-2" d="M24.67,37.13a.62.62,0,0,1-.62-.62V34.66a.62.62,0,1,1,1.24,0v1.85A.62.62,0,0,1,24.67,37.13Z"/><path class="cls-2" d="M28.52,27.14a.62.62,0,0,1-.62-.62V25.17a.62.62,0,0,1,.62-.62H30L26.6,21.18l-3.4,3.37h1.47a.62.62,0,0,1,.62.62v1.35a.62.62,0,0,1-1.24,0v-.73H21.7a.62.62,0,0,1-.57-.39.6.6,0,0,1,.14-.67l4.89-4.86a.62.62,0,0,1,.87,0l4.9,4.86a.6.6,0,0,1,.13.67.62.62,0,0,1-.57.39H29.14v.73A.62.62,0,0,1,28.52,27.14Z"/><path class="cls-2" d="M28.52,37.13a.62.62,0,0,1-.62-.62V34.66a.62.62,0,1,1,1.24,0v1.85A.62.62,0,0,1,28.52,37.13Z"/><path class="cls-2" d="M28.52,33.18a.62.62,0,0,1-.62-.62V30.47a.62.62,0,1,1,1.24,0v2.09A.62.62,0,0,1,28.52,33.18Z"/><path class="cls-2" d="M28.52,29a.62.62,0,0,1-.62-.62V26.52a.62.62,0,0,1,1.24,0v1.85A.62.62,0,0,1,28.52,29Z"/><path class="cls-2" d="M33.64,28.26h-.93a.62.62,0,0,1,0-1.24h.93a6.12,6.12,0,0,0,0-12.23,6,6,0,0,0-2.85.71.62.62,0,0,1-.89-.42,7.57,7.57,0,0,0-14.8,0,.62.62,0,0,1-.89.42,6,6,0,0,0-2.85-.71,6.12,6.12,0,0,0,0,12.23h.55a.62.62,0,0,1,0,1.24h-.55a7.35,7.35,0,0,1,0-14.7,7.52,7.52,0,0,1,2.73.52,8.8,8.8,0,0,1,16.82,0,7.52,7.52,0,0,1,2.73-.52,7.35,7.35,0,0,1,0,14.7Z"/><path class="cls-2" d="M17,15.18a.52.52,0,0,1-.21,0,.6.6,0,0,1-.37-.78A6.49,6.49,0,0,1,22.5,10a.62.62,0,0,1,0,1.24,5.29,5.29,0,0,0-5,3.5A.61.61,0,0,1,17,15.18Z"/><path class="cls-2" d="M18.73,30.92a.62.62,0,0,1-.62-.62V28.44a.62.62,0,0,1,1.24,0V30.3A.62.62,0,0,1,18.73,30.92Z"/><path class="cls-2" d="M18.73,27a.62.62,0,0,1-.62-.62V24.26a.62.62,0,0,1,1.24,0v2.09A.62.62,0,0,1,18.73,27Z"/><path class="cls-2" d="M18.73,22.78a.62.62,0,0,1-.62-.62V20.31a.62.62,0,1,1,1.24,0v1.85A.62.62,0,0,1,18.73,22.78Z"/><path class="cls-2" d="M16.81,37.13a.62.62,0,0,1-.44-.18l-4.9-4.86a.63.63,0,0,1-.13-.68.61.61,0,0,1,.57-.38h2.35V30.3a.62.62,0,1,1,1.24,0v1.35a.62.62,0,0,1-.62.62H13.41l3.4,3.37,3.39-3.37H18.73a.62.62,0,0,1-.62-.62V30.3a.62.62,0,0,1,1.24,0V31H21.7a.61.61,0,0,1,.57.38.63.63,0,0,1-.13.68L17.24,37A.61.61,0,0,1,16.81,37.13Z"/><path class="cls-2" d="M14.88,22.78a.62.62,0,0,1-.62-.62V20.31a.62.62,0,0,1,1.24,0v1.85A.62.62,0,0,1,14.88,22.78Z"/><path class="cls-2" d="M14.88,27a.62.62,0,0,1-.62-.62V24.26a.62.62,0,1,1,1.24,0v2.09A.62.62,0,0,1,14.88,27Z"/><path class="cls-2" d="M14.88,30.92a.62.62,0,0,1-.62-.62V28.44a.62.62,0,0,1,1.24,0V30.3A.62.62,0,0,1,14.88,30.92Z"/></g></g><g id="Layer_3" data-name="Layer 3"><g id="Cloud-Stargagy-2" data-name="Cloud-Stargagy"><path class="cls-3" d="M0,0H45V45H0Z"/><path class="cls-2" d="M34.17,31.07H31.12a.68.68,0,0,1-.67-.68.67.67,0,0,1,.67-.67h3.05a7.21,7.21,0,0,0,1.11-14.33.66.66,0,0,1-.54-.49,6.23,6.23,0,0,0-9.48-3.51.67.67,0,0,1-.93-.17,7.21,7.21,0,0,0-13.15,4.1,6.5,6.5,0,0,0,.11,1.19.66.66,0,0,1-.18.57.68.68,0,0,1-.56.21,5.34,5.34,0,0,0-.69-.05,6.24,6.24,0,0,0,0,12.48h4.5a.67.67,0,0,1,.67.67.68.68,0,0,1-.67.68H9.86a7.59,7.59,0,1,1,0-15.17,5.72,5.72,0,0,1,0-.58A8.55,8.55,0,0,1,25.05,9.94a7.59,7.59,0,0,1,10.86,4.2,8.55,8.55,0,0,1-1.74,16.93Z"/><path class="cls-2" d="M12.68,27A2.36,2.36,0,1,1,15,24.67,2.36,2.36,0,0,1,12.68,27Zm0-3.38a1,1,0,1,0,0,2,1,1,0,0,0,0-2Z"/><path class="cls-2" d="M19.72,20.82a2.36,2.36,0,1,1,2.36-2.36A2.36,2.36,0,0,1,19.72,20.82Zm0-3.37a1,1,0,0,0,0,2,1,1,0,1,0,0-2Z"/><path class="cls-2" d="M27.26,20.16a2.36,2.36,0,1,1,2.36-2.36A2.36,2.36,0,0,1,27.26,20.16Zm0-3.37a1,1,0,0,0,0,2,1,1,0,1,0,0-2Z"/><path class="cls-2" d="M32.32,28.2a2.36,2.36,0,1,1,2.36-2.36A2.36,2.36,0,0,1,32.32,28.2Zm0-3.37a1,1,0,0,0,0,2,1,1,0,1,0,0-2Z"/><path class="cls-2" d="M17,38.24a.67.67,0,0,1-.67-.67V25.34h-2a.67.67,0,0,1,0-1.34H17a.67.67,0,0,1,.67.67v12.9A.67.67,0,0,1,17,38.24Z"/><path class="cls-2" d="M19.72,29a.67.67,0,0,1-.67-.67V26.65a.67.67,0,1,1,1.34,0v1.68A.67.67,0,0,1,19.72,29Z"/><path class="cls-2" d="M19.72,34a.67.67,0,0,1-.67-.67V30.85a.67.67,0,1,1,1.34,0v2.52A.67.67,0,0,1,19.72,34Z"/><path class="cls-2" d="M19.72,38.24a.67.67,0,0,1-.67-.67V35.89a.67.67,0,0,1,1.34,0v1.68A.67.67,0,0,1,19.72,38.24Z"/><path class="cls-2" d="M19.72,27.32a.67.67,0,0,1-.67-.67v-6.5a.67.67,0,1,1,1.34,0v6.5A.67.67,0,0,1,19.72,27.32Z"/><path class="cls-2" d="M23.6,38.24a.67.67,0,0,1-.67-.67V23a.67.67,0,0,1,.67-.67h3V19.49a.67.67,0,0,1,.67-.67.68.68,0,0,1,.68.67V23a.68.68,0,0,1-.68.67h-3V37.57A.67.67,0,0,1,23.6,38.24Z"/><path class="cls-2" d="M27.85,38.24a.67.67,0,0,1-.67-.67V25.84a.67.67,0,0,1,.67-.67h2.79a.67.67,0,1,1,0,1.34H28.52V37.57A.67.67,0,0,1,27.85,38.24Z"/><path class="cls-2" d="M13.14,16.15a.67.67,0,0,1-.67-.67,5.91,5.91,0,0,1,5.9-5.9.67.67,0,0,1,.67.67.68.68,0,0,1-.67.68,4.56,4.56,0,0,0-4.56,4.55A.67.67,0,0,1,13.14,16.15Z"/></g></g></svg>