<svg id="Migration" xmlns="http://www.w3.org/2000/svg" viewBox="0 0 45 45"><defs><style>.cls-1{fill:#fa7564;fill-rule:evenodd;}.cls-2{fill:#fff;}</style></defs><g id="Cloud-Stargagy"><path class="cls-1" d="M0,0H45V45H0Z"/><path class="cls-2" d="M24.67,29a.62.62,0,0,1-.62-.62V26.52a.62.62,0,0,1,1.24,0v1.85A.62.62,0,0,1,24.67,29Z"/><path class="cls-2" d="M24.67,33.18a.62.62,0,0,1-.62-.62V30.47a.62.62,0,1,1,1.24,0v2.09A.62.62,0,0,1,24.67,33.18Z"/><path class="cls-2" d="M24.67,37.13a.62.62,0,0,1-.62-.62V34.66a.62.62,0,1,1,1.24,0v1.85A.62.62,0,0,1,24.67,37.13Z"/><path class="cls-2" d="M28.52,27.14a.62.62,0,0,1-.62-.62V25.17a.62.62,0,0,1,.62-.62H30L26.6,21.18l-3.4,3.37h1.47a.62.62,0,0,1,.62.62v1.35a.62.62,0,0,1-1.24,0v-.73H21.7a.62.62,0,0,1-.57-.39.6.6,0,0,1,.14-.67l4.89-4.86a.62.62,0,0,1,.87,0l4.9,4.86a.6.6,0,0,1,.13.67.62.62,0,0,1-.57.39H29.14v.73A.62.62,0,0,1,28.52,27.14Z"/><path class="cls-2" d="M28.52,37.13a.62.62,0,0,1-.62-.62V34.66a.62.62,0,1,1,1.24,0v1.85A.62.62,0,0,1,28.52,37.13Z"/><path class="cls-2" d="M28.52,33.18a.62.62,0,0,1-.62-.62V30.47a.62.62,0,1,1,1.24,0v2.09A.62.62,0,0,1,28.52,33.18Z"/><path class="cls-2" d="M28.52,29a.62.62,0,0,1-.62-.62V26.52a.62.62,0,0,1,1.24,0v1.85A.62.62,0,0,1,28.52,29Z"/><path class="cls-2" d="M33.64,28.26h-.93a.62.62,0,0,1,0-1.24h.93a6.12,6.12,0,0,0,0-12.23,6,6,0,0,0-2.85.71.62.62,0,0,1-.89-.42,7.57,7.57,0,0,0-14.8,0,.62.62,0,0,1-.89.42,6,6,0,0,0-2.85-.71,6.12,6.12,0,0,0,0,12.23h.55a.62.62,0,0,1,0,1.24h-.55a7.35,7.35,0,0,1,0-14.7,7.52,7.52,0,0,1,2.73.52,8.8,8.8,0,0,1,16.82,0,7.52,7.52,0,0,1,2.73-.52,7.35,7.35,0,0,1,0,14.7Z"/><path class="cls-2" d="M17,15.18a.52.52,0,0,1-.21,0,.6.6,0,0,1-.37-.78A6.49,6.49,0,0,1,22.5,10a.62.62,0,0,1,0,1.24,5.29,5.29,0,0,0-5,3.5A.61.61,0,0,1,17,15.18Z"/><path class="cls-2" d="M18.73,30.92a.62.62,0,0,1-.62-.62V28.44a.62.62,0,0,1,1.24,0V30.3A.62.62,0,0,1,18.73,30.92Z"/><path class="cls-2" d="M18.73,27a.62.62,0,0,1-.62-.62V24.26a.62.62,0,0,1,1.24,0v2.09A.62.62,0,0,1,18.73,27Z"/><path class="cls-2" d="M18.73,22.78a.62.62,0,0,1-.62-.62V20.31a.62.62,0,1,1,1.24,0v1.85A.62.62,0,0,1,18.73,22.78Z"/><path class="cls-2" d="M16.81,37.13a.62.62,0,0,1-.44-.18l-4.9-4.86a.63.63,0,0,1-.13-.68.61.61,0,0,1,.57-.38h2.35V30.3a.62.62,0,1,1,1.24,0v1.35a.62.62,0,0,1-.62.62H13.41l3.4,3.37,3.39-3.37H18.73a.62.62,0,0,1-.62-.62V30.3a.62.62,0,0,1,1.24,0V31H21.7a.61.61,0,0,1,.57.38.63.63,0,0,1-.13.68L17.24,37A.61.61,0,0,1,16.81,37.13Z"/><path class="cls-2" d="M14.88,22.78a.62.62,0,0,1-.62-.62V20.31a.62.62,0,0,1,1.24,0v1.85A.62.62,0,0,1,14.88,22.78Z"/><path class="cls-2" d="M14.88,27a.62.62,0,0,1-.62-.62V24.26a.62.62,0,1,1,1.24,0v2.09A.62.62,0,0,1,14.88,27Z"/><path class="cls-2" d="M14.88,30.92a.62.62,0,0,1-.62-.62V28.44a.62.62,0,0,1,1.24,0V30.3A.62.62,0,0,1,14.88,30.92Z"/></g></svg>