<svg id="Layer_5" data-name="Layer 5" xmlns="http://www.w3.org/2000/svg" viewBox="0 0 45 45"><defs><style>.cls-1{fill:#63d5ff;fill-rule:evenodd;}.cls-2{fill:#fff;}</style></defs><g id="Cloud-Stargagy"><path class="cls-1" d="M0,0H45V45H0Z"/></g><path class="cls-2" d="M34.17,31.67H31.12a.67.67,0,0,1,0-1.34h3.05A7.21,7.21,0,0,0,35.28,16a.68.68,0,0,1-.54-.49A6.23,6.23,0,0,0,25.26,12a.67.67,0,0,1-.93-.17,7.21,7.21,0,0,0-13.15,4.09,6.6,6.6,0,0,0,.11,1.2.67.67,0,0,1-.74.77c-.23,0-.46,0-.69,0a6.24,6.24,0,0,0,0,12.48h4.5a.67.67,0,0,1,0,1.34H9.86a7.58,7.58,0,1,1,0-15.16,5.82,5.82,0,0,1,0-.59,8.55,8.55,0,0,1,15.21-5.37,7.59,7.59,0,0,1,10.86,4.19,8.55,8.55,0,0,1-1.74,16.93Z"/><path class="cls-2" d="M13.14,16.76a.67.67,0,0,1-.67-.67,5.91,5.91,0,0,1,5.9-5.9.67.67,0,1,1,0,1.34,4.57,4.57,0,0,0-4.56,4.56A.67.67,0,0,1,13.14,16.76Z"/><path class="cls-2" d="M23.81,32.87a6.76,6.76,0,1,1,6.76-6.75.69.69,0,0,1-.5.66L31.29,28l1.25-1.26a.71.71,0,0,1-.38-.62,8.33,8.33,0,0,0-3-6.46A.7.7,0,1,1,30,18.58a9.65,9.65,0,0,1,3.54,6.84h.63a.7.7,0,0,1,.49,1.19l-2.87,2.87a.69.69,0,0,1-1,0l-2.87-2.87a.7.7,0,0,1,.49-1.19h.71a5.35,5.35,0,1,0-2.44,5.23.7.7,0,1,1,.74,1.18A6.77,6.77,0,0,1,23.81,32.87Z"/><path class="cls-2" d="M16.58,21.36A.69.69,0,0,1,16,20.24a9.49,9.49,0,0,1,2.52-2.33.69.69,0,0,1,.75,1.17,8.43,8.43,0,0,0-2.16,2A.71.71,0,0,1,16.58,21.36ZM21.87,18a.7.7,0,0,1-.15-1.38,9.7,9.7,0,0,1,3.44-.13A.7.7,0,1,1,25,17.84,8.6,8.6,0,0,0,22,18Z"/><path class="cls-2" d="M23.81,35.87a9.76,9.76,0,0,1-9.75-9.75,7.62,7.62,0,0,1,0-1,.68.68,0,0,1,.76-.63.7.7,0,0,1,.63.76,7.56,7.56,0,0,0,0,.83A8.35,8.35,0,0,0,28.61,33a.7.7,0,0,1,.8,1.15A9.74,9.74,0,0,1,23.81,35.87Z"/></svg>