<svg id="Layer_6" data-name="Layer 6" xmlns="http://www.w3.org/2000/svg" viewBox="0 0 45 45"><defs><style>.cls-1{fill:#f5ab1c;fill-rule:evenodd;}.cls-2{fill:#fff;}</style></defs><g id="Cloud-Stargagy"><path class="cls-1" d="M0,0H45V45H0Z" transform="translate(0 0)"/></g><path class="cls-2" d="M9.4,13.77a.6.6,0,0,1-.15-1.18,6.53,6.53,0,0,1,1.64-.21.6.6,0,0,1,.6.6.6.6,0,0,1-.6.6,5.53,5.53,0,0,0-1.34.17Z" transform="translate(0 0)"/><path class="cls-2" d="M4.93,18.89H4.86a.59.59,0,0,1-.52-.66,6.55,6.55,0,0,1,1.58-3.58.6.6,0,0,1,.91.79,5.29,5.29,0,0,0-1.3,2.92A.61.61,0,0,1,4.93,18.89Z" transform="translate(0 0)"/><path class="cls-2" d="M6.45,23.61a.62.62,0,0,1-.45-.2,6,6,0,0,1-.94-1.35.59.59,0,0,1,.25-.81.61.61,0,0,1,.81.25,5.65,5.65,0,0,0,.77,1.11.58.58,0,0,1,0,.84A.57.57,0,0,1,6.45,23.61Z" transform="translate(0 0)"/><path class="cls-2" d="M14.94,25.58h-4A6.61,6.61,0,0,1,6,23.41a.6.6,0,0,1,0-.85.59.59,0,0,1,.84.05,5.45,5.45,0,0,0,4,1.77h3.42a9.88,9.88,0,1,1,19.76-.12A5.39,5.39,0,0,0,36,14.52a.6.6,0,0,1-.23-.68A6.56,6.56,0,0,0,23.41,9.5a.58.58,0,0,1-.38.37.64.64,0,0,1-.52-.08,5.34,5.34,0,0,0-3-.93,5.39,5.39,0,0,0-5.36,4.8.6.6,0,0,1-.31.47.62.62,0,0,1-.55,0,5.33,5.33,0,0,0-2.37-.56.6.6,0,0,1-.6-.6.6.6,0,0,1,.6-.6,6.64,6.64,0,0,1,2.17.37,6.61,6.61,0,0,1,9.51-4.33,7.75,7.75,0,0,1,14.74,3.37,8,8,0,0,1-.26,2,6.59,6.59,0,0,1-3.57,11.76.58.58,0,0,1-.47-.17.62.62,0,0,1-.18-.48,8.68,8.68,0,1,0-17.29,0,.58.58,0,0,1-.16.45A.57.57,0,0,1,14.94,25.58Z" transform="translate(0 0)"/><path class="cls-2" d="M39,19.58a.6.6,0,0,1-.6-.6,5.42,5.42,0,0,0-3.86-5.17.61.61,0,0,1-.4-.75.6.6,0,0,1,.75-.4A6.63,6.63,0,0,1,39.58,19,.6.6,0,0,1,39,19.58Z" transform="translate(0 0)"/><path class="cls-2" d="M24.19,31.24a7.07,7.07,0,1,1,5-2.07A7,7,0,0,1,24.19,31.24Zm0-12.94a5.87,5.87,0,1,0,4.15,10,5.87,5.87,0,0,0-4.15-10Z" transform="translate(0 0)"/><path class="cls-2" d="M24.19,34.05a9.88,9.88,0,1,1,7-2.89A9.83,9.83,0,0,1,24.19,34.05Zm0-18.56A8.68,8.68,0,1,0,30.33,18,8.65,8.65,0,0,0,24.19,15.49Z" transform="translate(0 0)"/><path class="cls-2" d="M11.19,40.12a3,3,0,0,1-2.09-5l6.65-6.65a.62.62,0,0,1,.5-.17.61.61,0,0,1,.45.29,8.28,8.28,0,0,0,1.35,1.77,8.55,8.55,0,0,0,1.76,1.35.59.59,0,0,1,.29.44.55.55,0,0,1-.17.5l-6.65,6.65A2.94,2.94,0,0,1,11.19,40.12ZM16.07,29.8,10,35.92a1.77,1.77,0,0,0,0,2.49,1.8,1.8,0,0,0,2.48,0l6.12-6.13a9.23,9.23,0,0,1-1.35-1.12A9.38,9.38,0,0,1,16.07,29.8Z" transform="translate(0 0)"/><path class="cls-2" d="M13.26,36.5a.63.63,0,0,1-.43-.17.61.61,0,0,1,0-.85L16.35,32a.6.6,0,0,1,.85.85l-3.52,3.52A.63.63,0,0,1,13.26,36.5Z" transform="translate(0 0)"/></svg>