<svg id="infra_mangemnt" data-name="infra mangemnt" xmlns="http://www.w3.org/2000/svg" viewBox="0 0 45 45"><defs><style>.cls-1{fill:#1e0870;fill-rule:evenodd;}.cls-2{fill:#fff;}</style></defs><g id="Cloud-Stargagy"><path class="cls-1" d="M0,0H45V45H0Z" transform="translate(0 0)"/></g><path class="cls-2" d="M30.33,28.84H15.49a4.57,4.57,0,0,1,0-9.13,5.29,5.29,0,0,1,.8.07,4.57,4.57,0,0,1,4.53-4,4.75,4.75,0,0,1,1.63.3,5.43,5.43,0,0,1,10.41,2.19,5.31,5.31,0,0,1-.39,2,4.56,4.56,0,0,1-2.14,8.59Zm-14.84-7.9a3.34,3.34,0,0,0,0,6.67H30.33a3.33,3.33,0,0,0,1.11-6.47.64.64,0,0,1-.36-.36.59.59,0,0,1,0-.52,4.15,4.15,0,0,0,.52-2,4.2,4.2,0,0,0-8.24-1.17.64.64,0,0,1-.37.4.58.58,0,0,1-.53,0,3.33,3.33,0,0,0-5,2.89c0,.05,0,.11,0,.17a.67.67,0,0,1-.24.56.66.66,0,0,1-.59.1A3.21,3.21,0,0,0,15.49,20.94Z" transform="translate(0 0)"/><path class="cls-2" d="M27.42,14a.61.61,0,0,1-.61-.61V7.7a.61.61,0,0,1,.61-.62A.62.62,0,0,1,28,7.7v5.73A.61.61,0,0,1,27.42,14Z" transform="translate(0 0)"/><path class="cls-2" d="M20.82,17a.61.61,0,0,1-.61-.61V10.56a.62.62,0,0,1,1.23,0v5.82A.61.61,0,0,1,20.82,17Z" transform="translate(0 0)"/><path class="cls-2" d="M14.47,21a.61.61,0,0,1-.61-.61V13.87a.61.61,0,0,1,.61-.61.61.61,0,0,1,.62.61v6.56A.61.61,0,0,1,14.47,21Z" transform="translate(0 0)"/><path class="cls-2" d="M38.74,18.86h-6.5a.61.61,0,0,1-.61-.61.61.61,0,0,1,.61-.62h6.5a.61.61,0,0,1,.61.62A.61.61,0,0,1,38.74,18.86Z" transform="translate(0 0)"/><path class="cls-2" d="M38.74,24.89H34.28a.61.61,0,0,1-.61-.62.61.61,0,0,1,.61-.61h4.46a.61.61,0,0,1,.61.61A.61.61,0,0,1,38.74,24.89Z" transform="translate(0 0)"/><path class="cls-2" d="M11.55,24.89H7.15a.61.61,0,0,1-.61-.62.61.61,0,0,1,.61-.61h4.4a.61.61,0,0,1,.61.61A.61.61,0,0,1,11.55,24.89Z" transform="translate(0 0)"/><path class="cls-2" d="M30.76,15.39a.6.6,0,0,1-.46-.21.61.61,0,0,1,.05-.86l4.71-4.2a.62.62,0,0,1,.87.05.63.63,0,0,1,0,.87l-4.71,4.19A.59.59,0,0,1,30.76,15.39Z" transform="translate(0 0)"/><path class="cls-2" d="M12.39,22.46a.63.63,0,0,1-.49-.24L8.15,17.47a.62.62,0,0,1,.1-.87.61.61,0,0,1,.86.11l3.76,4.75a.62.62,0,0,1-.1.87A.67.67,0,0,1,12.39,22.46Z" transform="translate(0 0)"/><path class="cls-2" d="M27.42,8.31a1.93,1.93,0,1,1,1.93-1.93A1.93,1.93,0,0,1,27.42,8.31Zm0-2.63a.7.7,0,1,0,.7.7A.7.7,0,0,0,27.42,5.68Z" transform="translate(0 0)"/><path class="cls-2" d="M14.47,14.49a1.94,1.94,0,1,1,1.94-1.93A1.94,1.94,0,0,1,14.47,14.49Zm0-2.63a.7.7,0,1,0,0,1.4.7.7,0,1,0,0-1.4Z" transform="translate(0 0)"/><path class="cls-2" d="M20.82,11.19a1.93,1.93,0,1,1,1.94-1.93A1.93,1.93,0,0,1,20.82,11.19Zm0-2.63a.7.7,0,1,0,.71.7A.71.71,0,0,0,20.82,8.56Z" transform="translate(0 0)"/><path class="cls-2" d="M21.6,33.64A.62.62,0,0,1,21,33v-4.8a.61.61,0,0,1,.62-.61.61.61,0,0,1,.61.61V33A.61.61,0,0,1,21.6,33.64Z" transform="translate(0 0)"/><path class="cls-2" d="M21.6,36.25a1.93,1.93,0,1,1,1.93-1.93A1.94,1.94,0,0,1,21.6,36.25Zm0-2.63a.7.7,0,1,0,.7.7A.7.7,0,0,0,21.6,33.62Z" transform="translate(0 0)"/><path class="cls-2" d="M16.11,36.18a.61.61,0,0,1-.62-.61V28.22a.61.61,0,0,1,.62-.61.61.61,0,0,1,.61.61v7.35A.61.61,0,0,1,16.11,36.18Z" transform="translate(0 0)"/><path class="cls-2" d="M16.11,38.8A1.94,1.94,0,1,1,18,36.87,1.93,1.93,0,0,1,16.11,38.8Zm0-2.64a.71.71,0,1,0,.7.71A.7.7,0,0,0,16.11,36.16Z" transform="translate(0 0)"/><path class="cls-2" d="M28.25,35.67a.61.61,0,0,1-.62-.61V28.22a.62.62,0,0,1,1.24,0v6.84A.61.61,0,0,1,28.25,35.67Z" transform="translate(0 0)"/><path class="cls-2" d="M28.25,38.29a1.94,1.94,0,1,1,1.93-1.93A1.93,1.93,0,0,1,28.25,38.29Zm0-2.63a.7.7,0,1,0,.7.7A.7.7,0,0,0,28.25,35.66Z" transform="translate(0 0)"/><path class="cls-2" d="M5.84,26.21a1.94,1.94,0,1,1,1.93-1.94A1.94,1.94,0,0,1,5.84,26.21Zm0-2.64a.71.71,0,1,0,.7.7A.71.71,0,0,0,5.84,23.57Z" transform="translate(0 0)"/><path class="cls-2" d="M7.84,18A1.93,1.93,0,1,1,9.77,16,1.93,1.93,0,0,1,7.84,18Zm0-2.63a.7.7,0,0,0,0,1.4.7.7,0,0,0,0-1.4Z" transform="translate(0 0)"/><path class="cls-2" d="M8.63,32.43a.6.6,0,0,1-.38-.13.62.62,0,0,1-.1-.87l3.9-4.93a.61.61,0,1,1,1,.76L9.11,32.2A.62.62,0,0,1,8.63,32.43Z" transform="translate(0 0)"/><path class="cls-2" d="M7.84,34.8a1.94,1.94,0,1,1,1.93-1.94A1.93,1.93,0,0,1,7.84,34.8Zm0-2.64a.71.71,0,0,0,0,1.41.71.71,0,0,0,0-1.41Z" transform="translate(0 0)"/><path class="cls-2" d="M36.45,11.63A1.93,1.93,0,1,1,38.38,9.7,1.93,1.93,0,0,1,36.45,11.63Zm0-2.63a.7.7,0,1,0,.7.7A.7.7,0,0,0,36.45,9Z" transform="translate(0 0)"/><path class="cls-2" d="M37.71,32a.61.61,0,0,1-.41-.16l-4.7-4.19a.61.61,0,0,1-.05-.87.6.6,0,0,1,.86,0L38.12,31A.62.62,0,0,1,37.71,32Z" transform="translate(0 0)"/><path class="cls-2" d="M38.69,34.22a1.93,1.93,0,1,1,1.94-1.93A1.93,1.93,0,0,1,38.69,34.22Zm0-2.63a.7.7,0,1,0,.71.7A.7.7,0,0,0,38.69,31.59Z" transform="translate(0 0)"/><path class="cls-2" d="M40.05,20.18A1.94,1.94,0,1,1,42,18.25,1.94,1.94,0,0,1,40.05,20.18Zm0-2.64a.71.71,0,0,0,0,1.41.71.71,0,0,0,0-1.41Z" transform="translate(0 0)"/><path class="cls-2" d="M40.2,26.21a1.94,1.94,0,1,1,1.93-1.94A1.93,1.93,0,0,1,40.2,26.21Zm0-2.64a.71.71,0,1,0,.7.7A.7.7,0,0,0,40.2,23.57Z" transform="translate(0 0)"/><path class="cls-2" d="M17.65,26.21H16.11a.62.62,0,0,1-.62-.62.61.61,0,0,1,.62-.61h1.54a.61.61,0,0,1,.61.61A.61.61,0,0,1,17.65,26.21Z" transform="translate(0 0)"/><path class="cls-2" d="M22.26,26.21H20a.61.61,0,0,1-.61-.62A.61.61,0,0,1,20,25h2.31a.61.61,0,0,1,.62.61A.62.62,0,0,1,22.26,26.21Z" transform="translate(0 0)"/><path class="cls-2" d="M26.11,26.21H24.57a.62.62,0,0,1-.62-.62.61.61,0,0,1,.62-.61h1.54a.61.61,0,0,1,.61.61A.62.62,0,0,1,26.11,26.21Z" transform="translate(0 0)"/></svg>