<svg id="Layer_1" data-name="Layer 1" xmlns="http://www.w3.org/2000/svg" viewBox="0 0 45 45"><defs><style>.cls-1{fill:#31abed;}.cls-1,.cls-2{fill-rule:evenodd;}.cls-2,.cls-3{fill:#fff;}</style></defs><path class="cls-1" d="M0,0H45V45H0Z"/><path class="cls-2" d="M13,20.14,14.9,21.2A.54.54,0,0,1,15,22a.54.54,0,0,1-.67.19l-1.88-1.06a.54.54,0,0,1,.53-.94Z"/><path class="cls-3" d="M18.14,15.17a.59.59,0,0,1-.43-.17,7.25,7.25,0,0,0-5.17-2.14.6.6,0,0,1,0-1.2,8.44,8.44,0,0,1,6,2.49.59.59,0,0,1,0,.85A.58.58,0,0,1,18.14,15.17Z"/><path class="cls-3" d="M41.52,20.77a.6.6,0,0,1-.6-.6A7.3,7.3,0,0,0,28.45,15a.61.61,0,0,1-.85,0,.59.59,0,0,1,0-.85,8.51,8.51,0,0,1,14.52,6A.6.6,0,0,1,41.52,20.77Z"/><path class="cls-3" d="M33.61,28.68H31.77a.6.6,0,0,1,0-1.2h1.84A7.31,7.31,0,1,0,31,13.34a.57.57,0,0,1-.52-.05.59.59,0,0,1-.29-.44,7.31,7.31,0,0,0-14.52-.1.61.61,0,0,1-.27.44.6.6,0,0,1-.52.06,7.31,7.31,0,1,0-2.35,14.23h1.24a.6.6,0,0,1,0,1.2H12.54a8.51,8.51,0,0,1,0-17,8,8,0,0,1,2.06.26A8.51,8.51,0,0,1,31.29,12a8.34,8.34,0,0,1,2.32-.33,8.51,8.51,0,0,1,0,17Z"/><path class="cls-3" d="M26.42,35.72H19.74a.6.6,0,0,1-.6-.6V35a9.71,9.71,0,0,0-2-5.79,7.27,7.27,0,0,1-1.44-4.54,7.5,7.5,0,0,1,7.12-7.27,7.41,7.41,0,0,1,6.12,12A9.07,9.07,0,0,0,27,35v.16A.6.6,0,0,1,26.42,35.72Zm-6.09-1.2h5.5A10.26,10.26,0,0,1,28,28.61a6.2,6.2,0,0,0-.58-8.31,6.2,6.2,0,0,0-4.55-1.73,6.29,6.29,0,0,0-6,6.09,6.16,6.16,0,0,0,1.22,3.8A11,11,0,0,1,20.33,34.52Z"/><path class="cls-3" d="M19,25.42a.6.6,0,0,1-.6-.61,4.74,4.74,0,0,1,4.5-4.58.58.58,0,0,1,.62.57.6.6,0,0,1-.58.62,3.52,3.52,0,0,0-3.34,3.41A.6.6,0,0,1,19,25.42Z"/><path class="cls-3" d="M26.42,40.4H19.74a1.34,1.34,0,0,1-1.34-1.34v-3.2a1.34,1.34,0,0,1,1.34-1.34h6.68a1.34,1.34,0,0,1,1.34,1.34v3.2A1.34,1.34,0,0,1,26.42,40.4Zm-6.68-4.68a.14.14,0,0,0-.14.14v3.2a.14.14,0,0,0,.14.14h6.68a.14.14,0,0,0,.14-.14v-3.2a.14.14,0,0,0-.14-.14Z"/><path class="cls-3" d="M27.16,38.06H19a.6.6,0,0,1,0-1.2h8.16a.6.6,0,0,1,0,1.2Z"/><path class="cls-2" d="M16.77,15.82l1.59,1.45a.54.54,0,0,1,0,.77.53.53,0,0,1-.69,0l-1.59-1.46a.54.54,0,0,1,.72-.79Z"/><path class="cls-2" d="M23,13.8,23,16a.54.54,0,0,1-.57.51.54.54,0,0,1-.51-.48l-.06-2.15a.54.54,0,0,1,.57-.51A.55.55,0,0,1,23,13.8Z"/><path class="cls-2" d="M30.8,16.27a.54.54,0,0,1,0,.76l-1.59,1.45a.54.54,0,0,1-.73-.79l1.59-1.45A.53.53,0,0,1,30.8,16.27Z"/><path class="cls-2" d="M33,20.33a.54.54,0,0,1-.14.75L31,22.14a.54.54,0,0,1-.67-.19.54.54,0,0,1,.14-.75l1.88-1.06A.53.53,0,0,1,33,20.33Z"/></svg>