<svg xmlns="http://www.w3.org/2000/svg" viewBox="0 0 489.99 520.3"><defs><style>.cls-1{fill:#ffc2b0;}.cls-1,.cls-10,.cls-11,.cls-12,.cls-13,.cls-14,.cls-15,.cls-16,.cls-17,.cls-18,.cls-19,.cls-2,.cls-20,.cls-21,.cls-22,.cls-23,.cls-24,.cls-25,.cls-26,.cls-27,.cls-28,.cls-29,.cls-3,.cls-30,.cls-31,.cls-32,.cls-33,.cls-34,.cls-35,.cls-36,.cls-4,.cls-5,.cls-6,.cls-7,.cls-8,.cls-9{fill-rule:evenodd;}.cls-2{fill:#d8d8d8;}.cls-3{fill:#1c757f;}.cls-4{fill:#b45ef4;}.cls-5{fill:#5dcedb;}.cls-6{fill:#95d359;}.cls-7{fill:#c13d1a;}.cls-8{fill:#db5126;}.cls-9{fill:#ef602e;}.cls-10{fill:#d97618;}.cls-11{fill:#ec9f56;}.cls-12{fill:#24704a;}.cls-13{fill:#36a86f;}.cls-14{fill:#5ecb95;}.cls-15{fill:#049de1;}.cls-16{fill:#6dbce0;}.cls-17{fill:#fff;}.cls-18{fill:#1e95c9;}.cls-19{fill:#9ddfbe;}.cls-20{fill:#e8b817;}.cls-21{fill:#f6e2a2;}.cls-22{fill:#f0d065;}.cls-23{fill:#fbf5e0;}.cls-24{fill:#9b7b0f;}.cls-25{fill:#173d7a;}.cls-26{fill:#396caa;}.cls-27{fill:#f9ecc1;}.cls-28{fill:#ddf4e9;}.cls-29{fill:#2ab0bf;}.cls-30{fill:#ea9c92;}.cls-31{fill:#5793ce;}.cls-32{fill:#bee9d4;}.cls-33{fill:#b24520;}.cls-34{fill:#dc653d;}.cls-35{fill:#eaa188;}.cls-36{fill:#f8dfd6;}</style></defs><g id="Layer_2" data-name="Layer 2"><g id="Layer_1-2" data-name="Layer 1"><path class="cls-1" d="M60.78,243.29h0a7.44,7.44,0,0,1,2.61,1.78h0a17,17,0,0,1,1.79,2.4h0c.9,1.33,1.62,4.18,1.1,4.54h0c-.55.33-3.6-4.79-4.1-3.6h0c-.47,1.19,0,2.3-.63,2.33h0c-.63,0-2.83-5.15-4.54-6.75h0c-1.73-1.58,3.77-.7,3.77-.7"/><path class="cls-2" d="M471.72,331,490,341.5,471.72,352,453.48,341.5Zm-18.26-10.59,18.25,10.52-18.25,10.51-18.24-10.51Z"/><path class="cls-3" d="M474.46,322V290.47l15.53-9V313L474.46,322"/><path class="cls-4" d="M474.44,290.47l-15.53-9V313L474.44,322V290.47"/><path class="cls-5" d="M489.87,281.56l-15.47-8.9-15.49,8.9,15.49,8.92,15.47-8.92"/><path class="cls-6" d="M490,325l-15.53-9v6L490,330.93v-6"/><path class="cls-7" d="M458.91,330.93V283.3l15.53-8.94V322l-15.53,8.92"/><path class="cls-8" d="M459,283.3l-15.53-8.94V322L459,330.93V283.3"/><path class="cls-9" d="M474.44,274.34l-15.49-9-15.47,9,15.47,9,15.49-9"/><path class="cls-10" d="M458.91,330.93V283.3l15.53-8.94V322l-15.53,8.92"/><path class="cls-10" d="M459,283.3l-15.53-8.94V322L459,330.93V283.3"/><path class="cls-11" d="M474.44,274.34l-15.49-9-15.47,9,15.47,9,15.49-9"/><path class="cls-12" d="M474.46,339.92V313.05L490,304.12V331l-15.53,9"/><path class="cls-13" d="M474.44,313.05l-15.53-8.93V331l15.53,9V313.05"/><path class="cls-14" d="M489.87,304.06l-15.47-8.93-15.49,8.93L474.4,313l15.47-8.9"/><path class="cls-14" d="M331.13,167.55h0a1.25,1.25,0,0,1-1.25-1.26v-51.5h0a1.26,1.26,0,0,1,1.25-1.26h0a1.28,1.28,0,0,1,1.27,1.26v51.5h0a1.28,1.28,0,0,1-1.27,1.26"/><path class="cls-14" d="M326.6,111.58h9v19.33h-.09l0,.06a2.26,2.26,0,0,1-1.3,1.84,7,7,0,0,1-6.34,0,2.25,2.25,0,0,1-1.32-1.84l.05-.13Z"/><path class="cls-13" d="M326.6,114.74v6.54h0a11.51,11.51,0,0,0,9,0v-6.54h0a11.51,11.51,0,0,0-9,0"/><path class="cls-14" d="M323.8,84.62h14.58V115h-.1a3.61,3.61,0,0,1-2.13,3,11.21,11.21,0,0,1-10.24,0,3.61,3.61,0,0,1-2.13-3l0-.06Z"/><path class="cls-14" d="M381.33,195.86h0a1.26,1.26,0,0,1-1.27-1.24V143.1h0a1.28,1.28,0,0,1,1.27-1.27h0a1.28,1.28,0,0,1,1.25,1.27v51.52h0a1.25,1.25,0,0,1-1.25,1.24"/><path class="cls-14" d="M376.9,139.89h9v19.32h-.09l-.32.93a3,3,0,0,1-1,.85,6.89,6.89,0,0,1-6.31,0,2.24,2.24,0,0,1-1.32-1.83l0-.13Z"/><path class="cls-13" d="M376.9,143.05v6.55h0a11.69,11.69,0,0,0,9,0v-6.55h0a11.42,11.42,0,0,0-9,0"/><path class="cls-14" d="M374.1,112.92h14.58V143.2h-.14l0,.13a3.61,3.61,0,0,1-2.13,3,11.27,11.27,0,0,1-10.24,0,3.61,3.61,0,0,1-2.13-3l.05-.13h0Z"/><path class="cls-15" d="M340.86,0A25.44,25.44,0,0,1,352,2.19l.53.25.14.05.39.2,2,.92-.06,0,1.77.89C373.6,14.28,387.48,37,389.36,57a23.78,23.78,0,0,1,5.57,1.16l2.78,1.11,0,0c1,.46,2.07,1,3.14,1.62l1.18.82,3.87,2.62.36.31.45.32,1.53,1.43,2.39,2.1.82.9.72.67,1.12,1.36,1.73,1.89,1.23,1.67.85,1,.7,1.07L419,78.62l1.61,2.67.82,1.25-.05,0,1.09,1.8a64.37,64.37,0,0,1,6.71,18.43,19,19,0,0,1,6.77,2.48c10.87,6.26,19.68,21.55,19.68,34.11,0,6.28-2.2,10.7-5.76,12.76l-.45.16-19,11.2-2.77-18.68L338.31,81.07c-12.68-7.31-23.27-23.82-25.72-39l-.3-3.62-2.34.73L301,41.91l-12.09-5.55,31.13-17.91h0l.84-.5-6-4.75,0,0-.09-.08,18.34-10.8c.14-.08.3-.16.44-.25l.3-.19v0A16.6,16.6,0,0,1,340.86,0Z"/><path class="cls-16" d="M418,77.24a72.34,72.34,0,0,1,6.24,10.81L402,101.19l-8.53-9.49ZM347.84.8a36.89,36.89,0,0,1,8.76,3.67,51,51,0,0,1,5.64,3.83l-25.1,14.75-13.7-7.91Z"/><path class="cls-16" d="M416.41,116.4h0a18.73,18.73,0,0,0-6.73-2.48h0C406.55,97.44,395.09,80,381.45,72.1h0a27.6,27.6,0,0,0-11.54-3.91h0C368,48.25,354.19,25.61,337.33,15.88h0c-18.09-10.46-32.77-2-32.77,18.93h0c0,.69,0,1.4.08,2.12h0C291.36,30.79,281,37.73,281,53.4h0c0,16.69,11.71,37,26.17,45.34l109.21,63.05h0C427.26,168,436,163,436,150.44h0c0-12.53-8.78-27.76-19.63-34"/><path class="cls-17" d="M296.8,33.28a20.22,20.22,0,0,1,7.73,1.53v.08c0,.69,0,1.41.08,2.12-7.12-3.25-13.35-2.81-17.62.75A12.81,12.81,0,0,1,296.8,33.28ZM323.38,9.8c4.64-.23,10,1.19,15.61,4.46C355.83,24,369.73,46.7,371.61,66.71a27.8,27.8,0,0,1,11.56,3.89c13.66,7.93,25.14,25.4,28.28,41.91a19.7,19.7,0,0,1,6.71,2.48c10.9,6.3,19.72,21.56,19.72,34.15,0,5.63-1.82,9.74-4.77,12,2-2.42,3.15-6,3.15-10.48,0-12.56-8.81-27.83-19.68-34.12a19,19,0,0,0-6.73-2.49c-3.14-16.51-14.62-34-28.28-41.9A27.46,27.46,0,0,0,370,68.26c-1.88-20-15.76-42.68-32.64-52.42-10.32-6-19.54-5.8-25.55-.64A16.1,16.1,0,0,1,323.38,9.8Z"/><path class="cls-18" d="M302.31,41.89l8.19,3.8-.42-9h0c0-.64-.05-1.24-.05-1.88h0c0-8.07,2.45-13.91,6.86-16.47h0c4.43-2.57,10.71-1.77,17.71,2.28h0c15,8.68,28.13,29.79,29.83,48.11l.44,4.6,4.63.33h0a22.28,22.28,0,0,1,9.2,3.22h0c12,6.89,22.7,22.9,25.59,38.08l.72,3.8,3.83.61h0a13.88,13.88,0,0,1,4.82,1.79h0c9.17,5.32,16.92,18.74,16.92,29.32h0c0,4-1.08,6.88-3,8h0c-1.93,1.1-5,.57-8.43-1.38L309.94,94h0c-12.69-7.33-23.44-25.93-23.44-40.61h0c0-5.76,1.71-10.14,4.68-12h0a7.91,7.91,0,0,1,4.33-1.16h0a16.67,16.67,0,0,1,6.8,1.71"/><path class="cls-16" d="M351.52,70a2.86,2.86,0,0,1,1.85,1.54L368,98.31c.48.84.3,1.55-.21,1.62h0L365,101.29l-1.43-3.63-3.35-2-.05,12.38a1,1,0,0,1-.36.89h-.09l-2.87,1.45,0-2.72-11.65-6.86a2.92,2.92,0,0,1-1.27-2.3l0-12.39-7-4.12c-1-.58-1.46-2.07-.85-2.45l12.64-8.15h-.72L351,70v0h0A.85.85,0,0,1,351.52,70Z"/><path class="cls-17" d="M348.61,71.43A2.78,2.78,0,0,1,350.45,73l14.66,26.79c.64,1.13.12,2-.82,1.49l-7-4.09,0,12.4c0,.86-.56,1.24-1.25.8l-13.71-8A2.8,2.8,0,0,1,341.1,100l0-12.39-7-4.11c-1-.55-1.46-2-.82-2.45l14.74-9.48A.82.82,0,0,1,348.61,71.43Z"/><path class="cls-19" d="M377.75,153.78a.94.94,0,0,1,1,.09,3,3,0,0,1,1.4,2.43c0,.88-.6,1.24-1.4.8a3.1,3.1,0,0,1-1.37-2.4A1,1,0,0,1,377.75,153.78ZM327.37,125a1,1,0,0,1,1,.09,3.07,3.07,0,0,1,1.4,2.42c0,.89-.6,1.27-1.4.8a3.1,3.1,0,0,1-1.37-2.4A1,1,0,0,1,327.37,125Z"/><path class="cls-2" d="M290,351.11,226.27,314.7h0c-2.34-1.38-2.07-3.72.63-5.26l36.69-21.23h0c2.7-1.57,6.78-1.71,9.12-.38l63.79,36.41h0c2.34,1.35,2.07,3.72-.63,5.26l-36.72,21.23h0c-2.7,1.57-6.77,1.7-9.12.38"/><path class="cls-20" d="M342.16,312h0V163l-59.22-15.5L272,141.23h0c-2.48-1.46-6.86-1.27-9.75.38l-10.17,5.9-31.56,0,9.33,143.77h0a2.89,2.89,0,0,0,1.68,2.62l59.09,44.59h0c2.5,1.46,6.88,1.27,9.77-.38l39.39-22.75h0c1.65-1,2.45-2.21,2.37-3.36"/><path class="cls-21" d="M267.58,140.25h0a11.39,11.39,0,0,0-5.24,1.35l-10.16,5.89-31.57,0V296.78h0a2.8,2.8,0,0,0,1.68,2.62l68.43,39h0a8.76,8.76,0,0,0,4.51,1L296,189.16l-28.37-48.91"/><path class="cls-22" d="M291.36,338.74h0a10.9,10.9,0,0,0,7.75-.08V187.38h-7.75V338.74"/><path class="cls-21" d="M290.73,189.2l-68.43-39h0c-2.5-1.43-2.2-4,.69-5.64l39.37-22.71h0c2.89-1.68,7.27-1.87,9.75-.42l68.48,39h0c2.5,1.46,2.17,4-.69,5.65l-39.39,22.74h0c-2.9,1.65-7.27,1.81-9.78.38"/><path class="cls-23" d="M339.93,163.31,300.52,186h0c-2.89,1.68-7.27,1.84-9.78.41l-68.46-39h0a3.83,3.83,0,0,1-1.26-1.11h0c-.86,1.38-.47,2.89,1.26,3.89l68.46,39h0c2.51,1.43,6.89,1.27,9.78-.38l39.41-22.73h0c2.23-1.3,2.92-3.11,1.93-4.55h0a5.33,5.33,0,0,1-1.93,1.77"/><path class="cls-24" d="M292.69,173.43,247.1,147h0c-1.18-.69-1-1.87.34-2.64l18.43-10.66h0a5.16,5.16,0,0,1,4.58-.2L316,160h0c1.18.66,1,1.85-.3,2.62l-18.47,10.66h0a5.1,5.1,0,0,1-4.57.2"/><path class="cls-23" d="M295.14,160l2.65,1.56c.16.09.13.26,0,.37l-2.57,1.47a.62.62,0,0,1-.63,0l-2.65-1.53c-.14-.08-.14-.25.06-.36l2.53-1.51A.76.76,0,0,1,295.14,160Zm-8.87-5.11,2.63,1.49c.17.11.14.27,0,.38l-2.53,1.44a.74.74,0,0,1-.63,0l-2.64-1.49a.19.19,0,0,1,0-.36l2.55-1.46A.76.76,0,0,1,286.27,154.93Zm-8.77-5.11,2.64,1.49c.16.08.14.25-.06.35l-2.55,1.47a.74.74,0,0,1-.63,0l-2.61-1.5c-.17-.1-.17-.27,0-.38l2.52-1.44A.85.85,0,0,1,277.5,149.82ZM268,144.74a.67.67,0,0,1,.63,0l2.65,1.53c.17.11.14.25,0,.39l-2.57,1.48a.81.81,0,0,1-.63,0l-2.65-1.56c-.14-.08-.14-.25.05-.36Z"/><path class="cls-22" d="M247.1,147l.06,0h0a1.09,1.09,0,0,1,.27-.19l18.43-10.68h0a5.06,5.06,0,0,1,4.57-.16L316,162.45h0c1.05-.77,1.13-1.85,0-2.45l-45.56-26.5h0a5.14,5.14,0,0,0-4.57.2l-18.43,10.68h0c-1.37.77-1.51,2-.33,2.65"/><path class="cls-25" d="M308.22,218.72l25.94-14.88h0a6.41,6.41,0,0,0,2.62-5.05V189.5h0c0-1.94-1.19-2.85-2.62-2l-25.94,14.84h0a6.39,6.39,0,0,0-2.64,5.08v9.27h0c0,2,1.18,2.84,2.64,2"/><path class="cls-17" d="M335.31,187.26h0a2.61,2.61,0,0,1,.66,1.93v9.27h0a6.42,6.42,0,0,1-2.64,5.08l-25.88,14.84h0a1.74,1.74,0,0,1-1.27.28h0a1.63,1.63,0,0,0,2,.08L334,203.87h0a6.44,6.44,0,0,0,2.61-5.05v-9.3h0c0-1.29-.55-2.12-1.34-2.26"/><path class="cls-25" d="M308.22,285.74l25.94-14.87h0a6.4,6.4,0,0,0,2.62-5.05v-9.24h0c0-2-1.19-2.87-2.62-2l-25.94,14.85h0a6.32,6.32,0,0,0-2.64,5v9.27h0c0,2,1.18,2.87,2.64,2"/><path class="cls-17" d="M335.31,254.19h0a2.56,2.56,0,0,1,.66,1.93v9.21h0a6.29,6.29,0,0,1-2.64,5l-25.88,14.82h0a1.74,1.74,0,0,1-1.27.28h0a1.6,1.6,0,0,0,2,.08L334,270.72h0a6.35,6.35,0,0,0,2.61-5v-9.22h0c0-1.32-.55-2.14-1.34-2.28"/><path class="cls-26" d="M316,275.59l2.35-1.37h0a1.3,1.3,0,0,0,.58-1.07v-2.53h0c0-.44-.25-.64-.58-.44L316,271.55h0a1.29,1.29,0,0,0-.57,1.07v2.53h0c0,.44.24.64.57.44"/><path class="cls-17" d="M323.86,271l2.38-1.38h0a1.46,1.46,0,0,0,.57-1.1V266h0c0-.41-.27-.63-.57-.44l-2.38,1.37h0a1.36,1.36,0,0,0-.54,1.1v2.54h0c0,.41.24.6.54.44"/><path class="cls-25" d="M308.22,319.15l25.94-14.85h0a6.44,6.44,0,0,0,2.62-5.08V290h0c0-2-1.19-2.84-2.62-2l-25.94,14.84h0a6.38,6.38,0,0,0-2.64,5.05v9.3h0c0,2,1.18,2.84,2.64,2"/><path class="cls-17" d="M335.31,287.72h0a2.51,2.51,0,0,1,.66,1.9v9.3h0a6.36,6.36,0,0,1-2.64,5.05l-25.88,14.87h0a1.88,1.88,0,0,1-1.27.27h0a1.59,1.59,0,0,0,2,.06L334,304.33h0a6.45,6.45,0,0,0,2.61-5.08V290h0c0-1.32-.55-2.15-1.34-2.26"/><path class="cls-26" d="M316,309.15l2.35-1.39h0a1.38,1.38,0,0,0,.58-1.1v-2.54h0c0-.44-.25-.61-.58-.44L316,305.06h0a1.37,1.37,0,0,0-.57,1.1v2.54h0c0,.42.24.61.57.45"/><path class="cls-17" d="M323.86,304.5l2.38-1.37h0a1.37,1.37,0,0,0,.57-1.07v-2.53h0c0-.44-.27-.64-.57-.44l-2.38,1.37h0a1.34,1.34,0,0,0-.54,1.07v2.53h0c0,.44.24.64.54.44"/><path class="cls-25" d="M308.22,252.22l25.94-14.85h0a6.44,6.44,0,0,0,2.62-5.08V223h0c0-2-1.19-2.84-2.62-2l-25.94,14.84h0a6.38,6.38,0,0,0-2.64,5.05v9.3h0c0,2,1.18,2.84,2.64,2"/><path class="cls-17" d="M335.31,220.79h0a2.57,2.57,0,0,1,.66,1.93V232h0a6.38,6.38,0,0,1-2.64,5.07l-25.88,14.83h0a1.86,1.86,0,0,1-1.27.3h0a1.59,1.59,0,0,0,2,.06L334,237.41h0a6.45,6.45,0,0,0,2.61-5.07v-9.27h0c0-1.32-.55-2.15-1.34-2.28"/><path class="cls-26" d="M316,242.09l2.35-1.38h0a1.38,1.38,0,0,0,.58-1.1v-2.55h0c0-.44-.25-.6-.58-.44L316,238h0a1.36,1.36,0,0,0-.57,1.11v2.54h0c0,.42.24.61.57.44"/><path class="cls-17" d="M323.86,237.57l2.38-1.37h0a1.38,1.38,0,0,0,.57-1.1v-2.53h0c0-.41-.27-.61-.57-.44l-2.38,1.37h0a1.45,1.45,0,0,0-.54,1.1v2.53h0c0,.42.24.64.54.44"/><path class="cls-22" d="M224.27,277.63a1.46,1.46,0,0,1,1.69.05l59.9,34.58a5.77,5.77,0,0,1,2.43,4.64v11.42c0,1.8-1.08,2.6-2.43,1.82L226,295.56a5.83,5.83,0,0,1-2.4-4.64V279.5A2.28,2.28,0,0,1,224.27,277.63Zm0-20.08a1.45,1.45,0,0,1,1.69,0l59.9,34.56a5.77,5.77,0,0,1,2.43,4.64v11.42c0,1.8-1.08,2.62-2.43,1.82L226,275.45a5.78,5.78,0,0,1-2.4-4.64V259.44A2.28,2.28,0,0,1,224.27,257.55Zm0-20.2a1.45,1.45,0,0,1,1.69,0l59.9,34.55a5.81,5.81,0,0,1,2.43,4.67V288c0,1.79-1.08,2.62-2.43,1.82L226,255.27a5.81,5.81,0,0,1-2.4-4.61V239.24A2.31,2.31,0,0,1,224.27,237.35ZM225,217a1.79,1.79,0,0,1,.93.29l59.9,34.58a5.81,5.81,0,0,1,2.43,4.64v11.39c0,1.8-1.08,2.63-2.43,1.85L226,235.19a5.81,5.81,0,0,1-2.4-4.61V219.16C223.56,217.81,224.17,217,225,217Zm0-20.21a2,2,0,0,1,.93.29l59.9,34.57a5.85,5.85,0,0,1,2.43,4.63v11.42c0,1.79-1.08,2.62-2.43,1.85L226,215a5.82,5.82,0,0,1-2.4-4.63V199C223.56,197.6,224.17,196.8,225,196.81Zm0-20.08a1.89,1.89,0,0,1,.93.29l59.9,34.56a5.87,5.87,0,0,1,2.43,4.67v11.39c0,1.82-1.08,2.62-2.43,1.85L226,194.92a5.82,5.82,0,0,1-2.4-4.63V178.87C223.56,177.52,224.17,176.72,225,176.73Zm0-20.21a2,2,0,0,1,.93.29l59.9,34.58a5.76,5.76,0,0,1,2.43,4.63v11.42c0,1.79-1.08,2.62-2.43,1.82L226,174.71a5.82,5.82,0,0,1-2.4-4.63V158.66C223.56,157.32,224.17,156.52,225,156.52Z"/><path class="cls-27" d="M226.73,281.65a.77.77,0,0,1,.87,0L284,314.27a2.88,2.88,0,0,1,1.21,2.35v8.58c0,.91-.52,1.33-1.21.94L227.6,293.53a3,3,0,0,1-1.24-2.34V282.6A1.14,1.14,0,0,1,226.73,281.65Zm0-20.19a.74.74,0,0,1,.87,0L284,294.07a3,3,0,0,1,1.21,2.37V305c0,.88-.52,1.29-1.21.91L227.6,273.35a3,3,0,0,1-1.24-2.34v-8.59A1.16,1.16,0,0,1,226.73,261.46Zm0-20.1a.75.75,0,0,1,.87,0L284,274a3,3,0,0,1,1.21,2.38v8.58c0,.92-.52,1.33-1.21.92L227.6,253.25a3,3,0,0,1-1.24-2.35v-8.59A1.14,1.14,0,0,1,226.73,241.36Zm0-20.08a.77.77,0,0,1,.87,0L284,253.9a3,3,0,0,1,1.21,2.37v8.56c0,.91-.52,1.33-1.21.94L227.6,233.19a3.07,3.07,0,0,1-1.24-2.37v-8.59A1.14,1.14,0,0,1,226.73,221.28Zm0-20.21a.76.76,0,0,1,.87.05L284,233.7a2.89,2.89,0,0,1,1.21,2.35v8.58c0,.91-.52,1.32-1.21.94L227.6,213a3,3,0,0,1-1.24-2.34V202A1.15,1.15,0,0,1,226.73,201.07Zm0-20.09a.75.75,0,0,1,.87,0L284,213.61a2.89,2.89,0,0,1,1.21,2.35v8.58c0,.92-.52,1.33-1.21.94l-56.43-32.6a3.11,3.11,0,0,1-1.24-2.38v-8.58A1.09,1.09,0,0,1,226.73,181Zm0-20.18a.74.74,0,0,1,.87,0L284,193.41a2.89,2.89,0,0,1,1.21,2.35v8.58c0,.91-.52,1.33-1.21.94L227.6,172.69a3.06,3.06,0,0,1-1.24-2.34v-8.58A1.17,1.17,0,0,1,226.73,160.8Z"/><path class="cls-23" d="M278,316.85h0c0,1.64-1.16,2.3-2.61,1.48h0a5.71,5.71,0,0,1-2.59-4.47h0c0-1.68,1.16-2.33,2.59-1.51h0a5.67,5.67,0,0,1,2.61,4.5"/><path class="cls-24" d="M253.9,301.92a1,1,0,0,1,1,.09,3.15,3.15,0,0,1,1.4,2.43c0,.9-.64,1.26-1.4.81a3.12,3.12,0,0,1-1.38-2.43A1,1,0,0,1,253.9,301.92ZM249,299.15a1,1,0,0,1,1,.11,3,3,0,0,1,1.39,2.39c0,.89-.61,1.25-1.39.81a3.08,3.08,0,0,1-1.38-2.39A1,1,0,0,1,249,299.15Zm-4.74-2.81a.93.93,0,0,1,1,.1,3,3,0,0,1,1.4,2.43c0,.87-.62,1.23-1.4.78a3.14,3.14,0,0,1-1.37-2.43A1,1,0,0,1,244.29,296.34Zm34-1.83a.49.49,0,0,1,.55,0l2.82,1.62a1.89,1.89,0,0,1,.76,1.46v3c0,.57-.35.82-.76.57l-2.82-1.62a1.83,1.83,0,0,1-.77-1.49v-3A.73.73,0,0,1,278.3,294.51ZM230.11,288a.72.72,0,0,1,.84,0l8.43,4.89a2.88,2.88,0,0,1,1.18,2.3c0,.89-.52,1.28-1.18.92L231,291.2a2.89,2.89,0,0,1-1.19-2.3A1.14,1.14,0,0,1,230.11,288Zm28.78-3.66a1,1,0,0,1,1,.11,3,3,0,0,1,1.39,2.39c0,.89-.61,1.25-1.39.81a3.06,3.06,0,0,1-1.39-2.39A1,1,0,0,1,258.89,284.3Zm-5-2.81a1,1,0,0,1,1,.1,3,3,0,0,1,1.4,2.4c0,.9-.64,1.26-1.4.82a3.14,3.14,0,0,1-1.38-2.44A1,1,0,0,1,253.9,281.49ZM249,278.68a1,1,0,0,1,1,.08,3.18,3.18,0,0,1,1.39,2.44c0,.89-.61,1.25-1.39.81a3,3,0,0,1-1.38-2.41A1,1,0,0,1,249,278.68Zm-4.74-2.79a1,1,0,0,1,1,.1,3.05,3.05,0,0,1,1.4,2.43c0,.87-.62,1.23-1.4.81a3.23,3.23,0,0,1-1.37-2.46A1,1,0,0,1,244.29,275.89Zm34-1.57a.48.48,0,0,1,.55,0l2.82,1.62a1.89,1.89,0,0,1,.76,1.46v3c0,.52-.35.8-.76.55l-2.82-1.62a1.81,1.81,0,0,1-.77-1.46v-3A.72.72,0,0,1,278.3,274.32Zm-48.19-6.58a.75.75,0,0,1,.84,0l8.43,4.89a2.88,2.88,0,0,1,1.18,2.3c0,.89-.52,1.31-1.18.92L231,271a2.9,2.9,0,0,1-1.19-2.3A1.11,1.11,0,0,1,230.11,267.74Zm28.78-3.53a.94.94,0,0,1,1,.1,3,3,0,0,1,1.39,2.43c0,.87-.61,1.23-1.39.78a3,3,0,0,1-1.39-2.43A1,1,0,0,1,258.89,264.21Zm-5-2.81a1,1,0,0,1,1,.11,3.13,3.13,0,0,1,1.4,2.4c0,.9-.64,1.26-1.4.81a3.11,3.11,0,0,1-1.38-2.4A1,1,0,0,1,253.9,261.4ZM249,258.6a1,1,0,0,1,1,.1A3,3,0,0,1,251.4,261c0,.87-.61,1.23-1.39.82a3,3,0,0,1-1.38-2.35A1,1,0,0,1,249,258.6Zm-4.74-2.79a.91.91,0,0,1,1,.1,3.1,3.1,0,0,1,1.4,2.43c0,.87-.62,1.23-1.4.78a3.13,3.13,0,0,1-1.37-2.4A1,1,0,0,1,244.29,255.81Zm34-1.57a.46.46,0,0,1,.55,0l2.82,1.63a1.9,1.9,0,0,1,.76,1.49v3c0,.56-.35.8-.76.58l-2.82-1.63a1.81,1.81,0,0,1-.77-1.46v-3A.72.72,0,0,1,278.3,254.24Zm-48.19-6.58a.73.73,0,0,1,.84,0l8.43,4.91a2.81,2.81,0,0,1,1.18,2.31c0,.86-.52,1.27-1.18.88L231,250.89a2.91,2.91,0,0,1-1.19-2.31A1.1,1.1,0,0,1,230.11,247.66Zm28.78-3.54a1,1,0,0,1,1,.1,3,3,0,0,1,1.39,2.44c0,.86-.61,1.23-1.39.78a3,3,0,0,1-1.39-2.43A1,1,0,0,1,258.89,244.12Zm-5-2.8a1,1,0,0,1,1,.1,3.12,3.12,0,0,1,1.4,2.39c0,.92-.64,1.28-1.4.83a3.18,3.18,0,0,1-1.38-2.41A1,1,0,0,1,253.9,241.32ZM249,238.4a1,1,0,0,1,1,.1,3.09,3.09,0,0,1,1.39,2.44c0,.86-.61,1.23-1.39.81a3.11,3.11,0,0,1-1.38-2.46A1,1,0,0,1,249,238.4Zm-4.74-2.8a1,1,0,0,1,1,.1,3.08,3.08,0,0,1,1.4,2.42c0,.89-.62,1.25-1.4.77a3.09,3.09,0,0,1-1.37-2.38A1,1,0,0,1,244.29,235.6Zm34-1.45a.48.48,0,0,1,.55,0l2.82,1.65a1.82,1.82,0,0,1,.76,1.45v3c0,.57-.35.82-.76.57l-2.82-1.62a1.81,1.81,0,0,1-.77-1.46v-3A.73.73,0,0,1,278.3,234.15Zm-48.19-6.68a.72.72,0,0,1,.84,0l8.43,4.9a2.88,2.88,0,0,1,1.18,2.3c0,.85-.52,1.27-1.18.88L231,230.7a2.89,2.89,0,0,1-1.19-2.3A1.12,1.12,0,0,1,230.11,227.47Zm28.78-3.55a.94.94,0,0,1,1,.1,3,3,0,0,1,1.39,2.38c0,.92-.61,1.28-1.39.81a3,3,0,0,1-1.39-2.39A1,1,0,0,1,258.89,223.92Zm-5-2.8a.92.92,0,0,1,1,.1,3.1,3.1,0,0,1,1.4,2.41c0,.89-.64,1.25-1.4.81a3.17,3.17,0,0,1-1.38-2.42A1,1,0,0,1,253.9,221.12Zm-4.87-2.8a1,1,0,0,1,1,.1,3,3,0,0,1,1.39,2.41c0,.86-.61,1.25-1.39.81a3.08,3.08,0,0,1-1.38-2.42A1,1,0,0,1,249,218.32Zm-4.74-2.8a1,1,0,0,1,1,.1,3.06,3.06,0,0,1,1.4,2.41c0,.89-.62,1.25-1.4.81a3.17,3.17,0,0,1-1.37-2.42A1,1,0,0,1,244.29,215.52Zm34.56-1.59,2.82,1.65a1.8,1.8,0,0,1,.76,1.46v3c0,.55-.35.83-.76.55L278.85,219a1.77,1.77,0,0,1-.77-1.46v-3C278.08,214,278.41,213.71,278.85,213.93Zm-48.74-6.55a.73.73,0,0,1,.84,0l8.43,4.91a2.89,2.89,0,0,1,1.18,2.28c0,.92-.52,1.31-1.18.92L231,210.6a2.86,2.86,0,0,1-1.19-2.3A1.12,1.12,0,0,1,230.11,207.38Zm28.78-3.54a1,1,0,0,1,1,.09,3.07,3.07,0,0,1,1.39,2.42c0,.89-.61,1.25-1.39.81a3.07,3.07,0,0,1-1.39-2.42A1,1,0,0,1,258.89,203.84Zm-5-2.8a.92.92,0,0,1,1,.1,3.13,3.13,0,0,1,1.4,2.43c0,.89-.64,1.23-1.4.81a3.19,3.19,0,0,1-1.38-2.43A1,1,0,0,1,253.9,201ZM249,198.22a1,1,0,0,1,1,.09,3.08,3.08,0,0,1,1.39,2.43c0,.9-.61,1.26-1.39.81a3.07,3.07,0,0,1-1.38-2.43A1,1,0,0,1,249,198.22Zm-4.74-2.9a.92.92,0,0,1,1,.09,3.12,3.12,0,0,1,1.4,2.42c0,.89-.62,1.25-1.4.81a3.19,3.19,0,0,1-1.37-2.42A1,1,0,0,1,244.29,195.32Zm34.56-1.47,2.82,1.65a1.84,1.84,0,0,1,.76,1.46v3c0,.55-.35.82-.76.58l-2.82-1.63a1.79,1.79,0,0,1-.77-1.48v-3C278.08,193.88,278.41,193.63,278.85,193.85Zm-48.74-6.67a.74.74,0,0,1,.84,0l8.43,4.89a2.9,2.9,0,0,1,1.18,2.3c0,.89-.52,1.28-1.18.92L231,190.4a2.86,2.86,0,0,1-1.19-2.31A1.09,1.09,0,0,1,230.11,187.18Zm28.78-3.55a1,1,0,0,1,1,.1,3.1,3.1,0,0,1,1.39,2.42c0,.88-.61,1.25-1.39.8a3.05,3.05,0,0,1-1.39-2.42A1,1,0,0,1,258.89,183.63Zm-5-2.81a1,1,0,0,1,1,.08,3.15,3.15,0,0,1,1.4,2.44c0,.89-.64,1.26-1.4.81a3.19,3.19,0,0,1-1.38-2.43A1,1,0,0,1,253.9,180.82ZM249,178a1,1,0,0,1,1,.09,3.1,3.1,0,0,1,1.39,2.43c0,.89-.61,1.26-1.39.81a3.1,3.1,0,0,1-1.38-2.41A1,1,0,0,1,249,178Zm-4.74-2.79a1,1,0,0,1,1,.1,3,3,0,0,1,1.4,2.41c0,.89-.62,1.26-1.4.81a3.2,3.2,0,0,1-1.37-2.43A1,1,0,0,1,244.29,175.23Zm-14.18-8.13a.72.72,0,0,1,.84,0l8.43,4.87a2.88,2.88,0,0,1,1.18,2.3c0,.88-.52,1.3-1.18.91L231,170.3a2.83,2.83,0,0,1-1.19-2.27A1.12,1.12,0,0,1,230.11,167.1Z"/><path class="cls-2" d="M374.92,399.67l-63.87-36.39h0c-2.31-1.35-2-3.69.66-5.26l36.75-21.19h0c2.7-1.55,6.78-1.74,9.12-.39l63.85,36.4h0c2.34,1.35,2.07,3.72-.64,5.26l-36.74,21.19h0c-2.7,1.57-6.78,1.73-9.13.38"/><path class="cls-20" d="M427.09,360.55h0v-149l-59.27-15.51-10.91-6.3h0c-2.51-1.44-6.89-1.27-9.79.41L337,196.09l-31.62,0,9.38,143.77h0a2.8,2.8,0,0,0,1.65,2.62l59.16,44.59h0c2.5,1.46,6.89,1.27,9.75-.38l39.45-22.75h0c1.65-1,2.45-2.24,2.37-3.37"/><path class="cls-21" d="M352.4,188.84h0a11.67,11.67,0,0,0-5.24,1.38L337,196.11l-31.58,0V345.47h0a2.78,2.78,0,0,0,1.68,2.62l68.43,39h0a8.71,8.71,0,0,0,4.54,1l.69-150.32L352.4,188.84"/><path class="cls-22" d="M376.17,387.33h0a10.9,10.9,0,0,0,7.75-.08V236h-7.75V387.33"/><path class="cls-21" d="M375.55,237.79l-68.44-39h0c-2.5-1.46-2.17-4,.69-5.64l39.38-22.74h0c2.89-1.65,7.27-1.85,9.78-.41l68.44,39h0c2.5,1.43,2.2,4-.69,5.65L385.3,237.38h0c-2.87,1.68-7.25,1.84-9.75.41"/><path class="cls-23" d="M424.74,211.89,385.31,234.6h0c-2.86,1.68-7.24,1.87-9.75.41l-68.47-39h0a3.56,3.56,0,0,1-1.27-1.1h0c-.85,1.38-.44,2.89,1.27,3.88l68.47,39h0c2.51,1.43,6.89,1.27,9.75-.41l39.43-22.71h0c2.23-1.29,2.92-3.11,2-4.54h0a5.59,5.59,0,0,1-2,1.76"/><path class="cls-24" d="M377.49,222,331.91,195.6h0c-1.18-.69-1-1.87.31-2.67l18.46-10.64h0a5.16,5.16,0,0,1,4.58-.2l45.58,26.44h0c1.18.69,1,1.88-.33,2.65l-18.44,10.67h0a5.19,5.19,0,0,1-4.58.19"/><path class="cls-23" d="M380,208.66l2.64,1.53c.16.09.13.25-.06.37l-2.53,1.5a.74.74,0,0,1-.63,0l-2.63-1.56c-.17-.09-.14-.25.05-.36l2.55-1.48A.61.61,0,0,1,380,208.66Zm-8.89-5.11,2.64,1.53c.17.11.14.28,0,.36l-2.53,1.48a.71.71,0,0,1-.66.06l-2.61-1.54c-.16-.11-.16-.27.06-.39l2.52-1.47A.62.62,0,0,1,371.07,203.55Zm-8.74-5.14L365,200c.16.08.16.25,0,.36l-2.57,1.51a.58.58,0,0,1-.6,0l-2.65-1.54c-.17-.08-.14-.25,0-.36l2.56-1.48A.73.73,0,0,1,362.33,198.41Zm-8.88-5.11,2.61,1.56c.17.08.17.25-.05.36l-2.53,1.48a.62.62,0,0,1-.63,0l-2.64-1.53c-.16-.08-.14-.25.06-.36l2.55-1.51A.7.7,0,0,1,353.45,193.3Z"/><path class="cls-22" d="M331.91,195.57h0c.11,0,.19-.14.28-.16l18.45-10.65h0a5.17,5.17,0,0,1,4.57-.19l45.5,26.35h0c1.11-.77,1.16-1.82.06-2.45l-45.56-26.38h0a5.17,5.17,0,0,0-4.57.19L332.22,192.9h0c-1.33.8-1.49,2-.31,2.67"/><path class="cls-24" d="M420.88,336.81a2.53,2.53,0,0,1,.76,2.06v9.29a6.36,6.36,0,0,1-2.62,5.08l-26,14.88c-1.47.86-2.65-.06-2.65-2v-9.29a6.39,6.39,0,0,1,2.65-5.09l26-14.87A1.63,1.63,0,0,1,420.88,336.81Zm0-33.57a2.53,2.53,0,0,1,.76,2.06v9.29a6.32,6.32,0,0,1-2.62,5.06l-26,14.88c-1.47.85-2.65,0-2.65-2v-9.29a6.37,6.37,0,0,1,2.65-5.09l26-14.88A1.6,1.6,0,0,1,420.88,303.24ZM420,269.37c.95,0,1.6.87,1.6,2.34V281a6.36,6.36,0,0,1-2.62,5.08l-26,14.86c-1.47.86-2.65-.05-2.65-2v-9.28a6.32,6.32,0,0,1,2.65-5.06l26-14.89A2.08,2.08,0,0,1,420,269.37Zm.84-33.2a2.49,2.49,0,0,1,.76,2v9.29a6.36,6.36,0,0,1-2.62,5l-26,14.8c-1.47.86-2.65,0-2.65-2v-9.24a6.34,6.34,0,0,1,2.65-5.07l26-14.83A1.59,1.59,0,0,1,420.88,236.17Z"/><path class="cls-17" d="M420.12,235.85h0a2.51,2.51,0,0,1,.66,1.93V247h0a6.36,6.36,0,0,1-2.62,5l-25.87,14.8h0a2,2,0,0,1-1.3.27h0a1.58,1.58,0,0,0,2,.06l25.88-14.77h0a6.32,6.32,0,0,0,2.61-5v-9.26h0c0-1.3-.52-2.12-1.34-2.26"/><path class="cls-17" d="M420.12,302.9h0a2.56,2.56,0,0,1,.66,1.93v9.26h0a6.42,6.42,0,0,1-2.62,5.07L392.29,334h0a1.91,1.91,0,0,1-1.3.28h0a1.56,1.56,0,0,0,2,.06l25.88-14.83h0a6.31,6.31,0,0,0,2.61-5.05v-9.26h0c0-1.32-.52-2.15-1.34-2.29"/><path class="cls-17" d="M420.12,336.31h0a2.48,2.48,0,0,1,.66,1.9v9.3h0a6.4,6.4,0,0,1-2.62,5.05l-25.87,14.87h0a2.16,2.16,0,0,1-1.3.27h0a1.58,1.58,0,0,0,2,.06l25.88-14.85h0a6.33,6.33,0,0,0,2.61-5.07v-9.27h0c0-1.33-.52-2.15-1.34-2.26"/><path class="cls-17" d="M420.12,269.38h0a2.57,2.57,0,0,1,.66,1.93v9.26h0a6.45,6.45,0,0,1-2.62,5.07l-25.87,14.83h0a1.8,1.8,0,0,1-1.3.27h0a1.54,1.54,0,0,0,2,.09L418.85,286h0a6.36,6.36,0,0,0,2.61-5.07v-9.27h0c0-1.32-.52-2.15-1.34-2.28"/><path class="cls-23" d="M403.15,352.47c.33-.16.58,0,.58.45v2.54a1.38,1.38,0,0,1-.58,1.11L400.8,358c-.33.16-.57,0-.57-.45V355a1.33,1.33,0,0,1,.57-1.1Zm7.94-4.62c.3-.17.55,0,.55.44v2.55a1.43,1.43,0,0,1-.55,1.11l-2.38,1.38c-.3.17-.57,0-.57-.44v-2.55a1.48,1.48,0,0,1,.57-1.11Zm-7.94-29c.33-.17.58,0,.58.44v2.54a1.31,1.31,0,0,1-.58,1.1l-2.35,1.38c-.33.19-.57,0-.57-.45v-2.53a1.37,1.37,0,0,1,.57-1.1Zm8.33-4.62a.58.58,0,0,1,.16.46v2.54a1.44,1.44,0,0,1-.55,1.1l-2.38,1.35c-.3.19-.57,0-.57-.44v-2.51a1.36,1.36,0,0,1,.57-1.1l2.38-1.38A.35.35,0,0,1,411.48,314.26Zm-7.91-29a.55.55,0,0,1,.16.45v2.54a1.38,1.38,0,0,1-.58,1.1l-2.35,1.35c-.33.2-.57,0-.57-.44v-2.51a1.3,1.3,0,0,1,.57-1.1l2.35-1.38A.38.38,0,0,1,403.57,285.3Zm7.52-4.52c.3-.16.55,0,.55.45v2.54a1.4,1.4,0,0,1-.55,1.11l-2.38,1.39c-.3.16-.57,0-.57-.45v-2.54a1.46,1.46,0,0,1,.57-1.11Zm-7.94-29c.33-.17.58,0,.58.44v2.53a1.3,1.3,0,0,1-.58,1.1l-2.35,1.38c-.33.19-.57,0-.57-.44V254.3a1.39,1.39,0,0,1,.57-1.11Zm7.94-4.63c.3-.17.55,0,.55.44v2.56a1.35,1.35,0,0,1-.55,1.08l-2.38,1.38c-.3.19-.57,0-.57-.44v-2.54a1.46,1.46,0,0,1,.57-1.1Z"/><path class="cls-22" d="M309,326.23a1.51,1.51,0,0,1,1.73.06l59.85,34.54a5.93,5.93,0,0,1,2.42,4.63v11.45c0,1.77-1.1,2.6-2.42,1.82L310.7,344.17a5.79,5.79,0,0,1-2.45-4.64V328.11A2.29,2.29,0,0,1,309,326.23Zm0-20.08a1.51,1.51,0,0,1,1.73.06l59.85,34.56a5.87,5.87,0,0,1,2.42,4.64v11.42c0,1.79-1.1,2.59-2.42,1.82L310.7,324.08a5.78,5.78,0,0,1-2.45-4.63V308A2.27,2.27,0,0,1,309,306.15Zm0-20.22a1.52,1.52,0,0,1,1.73.05l59.85,34.58A5.84,5.84,0,0,1,373,325.2v11.42c0,1.77-1.1,2.6-2.42,1.83L310.7,303.86a5.78,5.78,0,0,1-2.45-4.63V287.8A2.24,2.24,0,0,1,309,285.93Zm.78-20.32a1.94,1.94,0,0,1,.95.28l59.85,34.59a5.84,5.84,0,0,1,2.42,4.63v11.43c0,1.79-1.1,2.6-2.42,1.82L310.7,283.78a5.77,5.77,0,0,1-2.45-4.61V267.72C308.25,266.39,308.87,265.59,309.75,265.61Zm0-20.21a2,2,0,0,1,.95.29l59.85,34.56a5.93,5.93,0,0,1,2.42,4.63v11.43c0,1.79-1.1,2.62-2.42,1.85L310.7,263.55a5.8,5.8,0,0,1-2.45-4.61V247.51C308.25,246.19,308.87,245.39,309.75,245.4Zm0-20.08a1.86,1.86,0,0,1,.95.29l59.85,34.58A5.83,5.83,0,0,1,373,264.8v11.43c0,1.79-1.1,2.62-2.42,1.85L310.7,243.52a5.84,5.84,0,0,1-2.45-4.66v-11.4C308.25,226.11,308.87,225.31,309.75,225.32Zm0-20.21a2.07,2.07,0,0,1,.95.29L370.55,240a5.84,5.84,0,0,1,2.42,4.63V256c0,1.82-1.1,2.62-2.42,1.85L310.7,223.31a5.85,5.85,0,0,1-2.45-4.64V207.25C308.25,205.91,308.87,205.1,309.75,205.11Z"/><path class="cls-27" d="M311.53,330.22a.8.8,0,0,1,.88,0l56.4,32.61a2.88,2.88,0,0,1,1.24,2.34v8.59c0,.91-.55,1.33-1.24.94l-56.4-32.61a2.94,2.94,0,0,1-1.24-2.37v-8.59A1.1,1.1,0,0,1,311.53,330.22Zm0-20.07a.78.78,0,0,1,.88,0l56.4,32.6a3,3,0,0,1,1.24,2.35v8.59c0,.91-.55,1.32-1.24.94L312.41,322a3,3,0,0,1-1.24-2.37v-8.56A1.14,1.14,0,0,1,311.53,310.15Zm0-20.19a.77.77,0,0,1,.88,0l56.4,32.59a2.94,2.94,0,0,1,1.24,2.37v8.58c0,.91-.55,1.3-1.24.91l-56.4-32.58a2.92,2.92,0,0,1-1.24-2.35v-8.58A1.18,1.18,0,0,1,311.53,290Zm0-20.1a.8.8,0,0,1,.88,0l56.4,32.59a2.93,2.93,0,0,1,1.24,2.34v8.61c0,.91-.55,1.33-1.24.91l-56.4-32.58a2.92,2.92,0,0,1-1.24-2.35v-8.58A1.14,1.14,0,0,1,311.53,269.86Zm0-20.2a.76.76,0,0,1,.88,0l56.4,32.58a3,3,0,0,1,1.24,2.37v8.59c0,.91-.55,1.32-1.24.93l-56.4-32.63a2.86,2.86,0,0,1-1.24-2.32v-8.58A1.14,1.14,0,0,1,311.53,249.66Zm0-20.08a.79.79,0,0,1,.88,0l56.4,32.58a2.92,2.92,0,0,1,1.24,2.35v8.58c0,.91-.55,1.33-1.24.94l-56.4-32.6a2.87,2.87,0,0,1-1.24-2.35v-8.59A1.14,1.14,0,0,1,311.53,229.58Zm0-20.19a.75.75,0,0,1,.88,0L368.81,242a2.92,2.92,0,0,1,1.24,2.35v8.58c0,.91-.55,1.32-1.24.94l-56.4-32.62a2.88,2.88,0,0,1-1.24-2.34v-8.58A1.13,1.13,0,0,1,311.53,209.39Z"/><path class="cls-23" d="M332.89,347.92h0c0,1.67-1.16,2.33-2.59,1.51h0a5.7,5.7,0,0,1-2.61-4.5h0c0-1.65,1.16-2.31,2.61-1.48h0a5.69,5.69,0,0,1,2.59,4.47"/><path class="cls-14" d="M271.09,362h0a.81.81,0,0,1-.74-.44h0a.86.86,0,0,1,.3-1.18l11.79-6.83h0a4.3,4.3,0,0,0,2.18-3.74v-6.21h0a.87.87,0,0,1,.85-.89h0a.87.87,0,0,1,.88.89v6.21h0a6.13,6.13,0,0,1-3,5.29l-11.82,6.79h0a.72.72,0,0,1-.41.11"/><path class="cls-14" d="M271.33,357.18a2.32,2.32,0,0,1,1,.33,5.68,5.68,0,0,1,2.53,4.43,1.79,1.79,0,0,1-.75,1.65h0l.05.09-13.43,7.72-3.58-6.25,13.22-7.6.2-.23A1.35,1.35,0,0,1,271.33,357.18Z"/><path class="cls-13" d="M259.29,363.81l4.56-2.6h0a9.22,9.22,0,0,1,3.55,6.21l-4.54,2.63h0a9.27,9.27,0,0,1-3.57-6.24"/><path class="cls-14" d="M259.67,361.49a3.91,3.91,0,0,1,1.61.55,9.13,9.13,0,0,1,4.1,7.13,2.9,2.9,0,0,1-1.21,2.67h-.07l.06.11-21.08,12.1L237.29,374l20.93-12.06.13-.14A2.13,2.13,0,0,1,259.67,361.49Z"/><path class="cls-2" d="M215,505.13,66.52,419.47h0c-4.19-2.42-3.67-6.66,1.18-9.47l101.08-58.31h0c4.85-2.78,12.18-3.11,16.36-.66l148.42,85.66h0c4.19,2.42,3.69,6.66-1.19,9.44l-101,58.31h0c-4.85,2.81-12.18,3.11-16.37.69"/><path class="cls-12" d="M336.45,420.64,316.14,418l-130.95-75.6h0c-4.19-2.42-11.52-2.12-16.37.69L76,396.6,63.72,395v7h0c-.08,1.6.85,3.14,2.81,4.3L215,491.89h0c4.19,2.42,11.52,2.12,16.37-.69l101.05-58.27h0c2.73-1.6,4.1-3.61,4-5.54v-6.75"/><path class="cls-14" d="M126.53,367.52H229l9.3,5.39L223.7,493.76a15.32,15.32,0,0,1-8.47-1.6L66.56,406.33c-2-1.16-2.89-2.71-2.81-4.31h0v-7h0l5.52.72v0l6.79.9Z"/><path class="cls-13" d="M216.39,492.67h0a19.05,19.05,0,0,0,14-.85V476.24h-14v16.43"/><path class="cls-28" d="M215,484.94,66.52,399.28h0c-4.19-2.42-3.67-6.64,1.18-9.45l101.08-58.31h0c4.85-2.81,12.18-3.11,16.36-.66l148.42,85.66h0c4.19,2.43,3.69,6.67-1.19,9.45l-101,58.31h0c-4.85,2.78-12.18,3.11-16.37.66"/><path class="cls-17" d="M332.44,423.42,231.39,481.74h0c-4.86,2.78-12.19,3.09-16.37.66L66.55,396.72h0A5.4,5.4,0,0,1,64,393.88h0c-.66,2,.17,4,2.59,5.38L215,484.94h0c4.18,2.45,11.51,2.12,16.37-.66L332.44,426h0c3.28-1.87,4.58-4.41,3.81-6.61h0a8,8,0,0,1-3.81,4.08"/><path class="cls-12" d="M268.49,445.57a1.62,1.62,0,0,1,.84.17l7.47,4.32c.47.24.38.71-.11,1l-3.26,1.9a2,2,0,0,1-1.71.05l-7.5-4.32c-.44-.25-.38-.69.14-1l3.23-1.87A2,2,0,0,1,268.49,445.57ZM258,439.48a1.71,1.71,0,0,1,.84.17l7.5,4.32c.44.25.38.72-.11,1L263,446.83a1.93,1.93,0,0,1-1.73.09l-7.5-4.33c-.44-.24-.36-.68.13-1l3.26-1.85A2,2,0,0,1,258,439.48Zm5.7-3.28a1.58,1.58,0,0,1,.84.16l7.52,4.32c.44.25.38.69-.14,1l-3.26,1.87a2,2,0,0,1-1.71.08l-7.52-4.32c-.41-.25-.39-.72.14-1l3.23-1.87A1.87,1.87,0,0,1,263.72,436.2Zm-16.06-2.68a1.62,1.62,0,0,1,.84.17L256,438c.47.27.39.71-.11,1l-3.26,1.87a1.79,1.79,0,0,1-1.71.05l-7.46-4.29c-.47-.27-.41-.72.11-1l3.23-1.84A1.87,1.87,0,0,1,247.66,433.52Zm22.24-4.73a1.85,1.85,0,0,1,1,.2l19.84,11.48c.52.31.47.86-.17,1.22l-6.64,3.84a2.3,2.3,0,0,1-2.13.08L262,434.17c-.52-.31-.44-.86.17-1.22l6.65-3.87A2.39,2.39,0,0,1,269.9,428.79ZM285.24,426a1.89,1.89,0,0,1,1,.22l14.68,8.41c.56.33.47.88-.16,1.24l-6.65,3.82a2.27,2.27,0,0,1-2.1.08l-14.69-8.44c-.52-.3-.47-.82.17-1.21l6.65-3.82A2.54,2.54,0,0,1,285.24,426Zm-42.41-1.11a2.11,2.11,0,0,1,1,.21l6.68,3.91c.56.3.47.85-.13,1.21l-7.93,4.6a2.34,2.34,0,0,1-2.1.11l-6.74-3.9c-.53-.34-.47-.89.13-1.22l8-4.63A2.53,2.53,0,0,1,242.83,424.89Zm60.57-.1a1.81,1.81,0,0,1,1,.22l6.75,3.88c.53.31.48.86-.16,1.22L304.35,434a2.43,2.43,0,0,1-2.13.08l-6.75-3.91c-.53-.31-.47-.86.16-1.22l6.7-3.86A2.38,2.38,0,0,1,303.4,424.79Zm-43.94-2a2,2,0,0,1,1,.2l6.73,3.91c.55.34.5.89-.14,1.25l-6.67,3.86a2.39,2.39,0,0,1-2.13.08l-6.72-3.91c-.56-.31-.5-.86.14-1.22l6.66-3.86A2.33,2.33,0,0,1,259.46,422.83Zm15.34-2.91a1.82,1.82,0,0,1,1,.22l6.72,3.9c.56.3.48.83-.16,1.22l-6.67,3.84a2.24,2.24,0,0,1-2.1.08l-6.76-3.87c-.52-.33-.47-.88.14-1.24l6.7-3.85A2.54,2.54,0,0,1,274.8,419.92Zm18.13-1.11a1.93,1.93,0,0,1,1,.21l6.72,3.91c.55.3.47.86-.17,1.22L293.86,428a2.45,2.45,0,0,1-2.11.08L285,424.2c-.53-.33-.47-.86.17-1.25l6.67-3.85A2.36,2.36,0,0,1,292.93,418.81Zm-64.23-2.05a1.83,1.83,0,0,1,1,.21l10.75,6.23c.53.3.47.85-.16,1.21l-7.92,4.6a2.34,2.34,0,0,1-2.09.08l-10.78-6.22c-.53-.31-.44-.86.16-1.22l7.92-4.59A2.38,2.38,0,0,1,228.7,416.76Zm20.34,0a1.78,1.78,0,0,1,1,.21l6.71,3.91c.55.3.5.86-.16,1.22L250,425.93a2.36,2.36,0,0,1-2.09.12l-6.69-3.92c-.52-.3-.47-.86.14-1.22L248,417A2.39,2.39,0,0,1,249,416.74Zm58.73-1.08a1.69,1.69,0,0,1,1,.22l12.37,7.17c.55.31.47.86-.14,1.22l-6.66,3.86a2.27,2.27,0,0,1-2.1.08L299.87,421c-.55-.3-.46-.86.14-1.22l6.67-3.88A2.66,2.66,0,0,1,307.77,415.66Zm-43.32-1.72a1.89,1.89,0,0,1,1,.21l6.76,3.91c.52.33.47.86-.17,1.22l-6.67,3.88a2.39,2.39,0,0,1-2.13.06l-6.72-3.89c-.56-.3-.47-.86.14-1.22l6.69-3.88A2.28,2.28,0,0,1,264.45,413.94Zm18.15-1.2a1.75,1.75,0,0,1,1,.22l6.75,3.88c.53.33.47.89-.14,1.25L283.54,422a2.43,2.43,0,0,1-2.13.08l-6.73-3.91c-.55-.31-.47-.83.14-1.22l6.7-3.86A2.42,2.42,0,0,1,282.6,412.74Zm29.7-1.6a2,2,0,0,1,1,.2l6.71,3.88c.56.3.47.85-.13,1.21l-2.21,1.23a2.28,2.28,0,0,1-2.1.11l-6.74-3.87c-.53-.3-.47-.85.13-1.21l2.21-1.26A2.4,2.4,0,0,1,312.3,411.14Zm-73.57-.37a2.1,2.1,0,0,1,1,.21l6.69,3.91c.52.31.46.86-.17,1.22l-6.6,3.86a2.32,2.32,0,0,1-2.09.11l-6.72-3.91c-.55-.33-.47-.86.14-1.22l6.66-3.88A2.38,2.38,0,0,1,238.73,410.77Zm59.19-.83a1.84,1.84,0,0,1,1,.22l6.72,3.9c.55.3.47.85-.14,1.21l-6.67,3.85a2.34,2.34,0,0,1-2.13.11l-6.72-3.9c-.56-.33-.47-.89.14-1.24l6.67-3.85A2.5,2.5,0,0,1,297.92,409.94ZM254,408a2.13,2.13,0,0,1,1,.21l6.72,3.91c.56.31.47.84-.14,1.22l-6.69,3.86a2.26,2.26,0,0,1-2.11.08l-6.75-3.88c-.52-.3-.47-.86.17-1.22l6.67-3.88A2.54,2.54,0,0,1,254,408Zm18.26-1.2a2,2,0,0,1,1,.22l6.73,3.89c.55.3.47.86-.14,1.22L273.19,416a2.39,2.39,0,0,1-2.13.08l-6.72-3.91c-.56-.3-.5-.86.14-1.22l6.66-3.85A2.59,2.59,0,0,1,272.24,406.77ZM302,405.19a2,2,0,0,1,1,.22l6.72,3.9c.55.31.47.86-.14,1.22l-2.21,1.28a2.24,2.24,0,0,1-2.1.09l-6.74-3.9c-.53-.33-.47-.86.14-1.25l2.21-1.25A2.41,2.41,0,0,1,302,405.19Zm-73.64-.38a2.11,2.11,0,0,1,1,.21l6.75,3.91c.52.33.47.89-.17,1.22L229.23,414a2.39,2.39,0,0,1-2.11.09l-6.75-3.91c-.53-.31-.47-.86.17-1.22l6.69-3.89A2.29,2.29,0,0,1,228.31,404.81Zm59.26-.84a1.8,1.8,0,0,1,1,.2l6.75,3.91c.56.3.47.86-.13,1.22l-6.7,3.88a2.37,2.37,0,0,1-2.1.09l-6.76-3.92c-.52-.3-.47-.86.14-1.22l6.7-3.85A2.55,2.55,0,0,1,287.57,404Zm-44-2a2,2,0,0,1,1,.21l6.68,3.91c.53.31.47.83-.13,1.22l-6.63,3.86a2.31,2.31,0,0,1-2.12.08l-6.69-3.91c-.55-.31-.47-.86.17-1.22l6.63-3.86A2.25,2.25,0,0,1,243.6,402Zm18.18-1.2a1.72,1.72,0,0,1,1,.22l6.74,3.88c.55.31.47.86-.14,1.22L262.71,410a2.33,2.33,0,0,1-2.1.08l-6.74-3.91c-.55-.33-.47-.86.16-1.22l6.66-3.88A2.52,2.52,0,0,1,261.78,400.81Zm30-1.6a2.11,2.11,0,0,1,1,.21l6.71,3.93c.56.3.47.83-.13,1.22l-2.21,1.28a2.24,2.24,0,0,1-2.1.08L288.29,402c-.53-.31-.47-.86.16-1.23l2.18-1.28A2.57,2.57,0,0,1,291.73,399.21ZM218,398.85a2,2,0,0,1,1,.2l6.75,3.92c.53.3.47.86-.16,1.22l-6.67,3.88a2.49,2.49,0,0,1-2.13.08l-6.73-3.91c-.55-.3-.47-.86.17-1.22l6.67-3.88A2.25,2.25,0,0,1,218,398.85Zm59.15-.84a2,2,0,0,1,1,.19l6.73,3.91c.55.31.5.86-.14,1.22l-6.67,3.86a2.31,2.31,0,0,1-2.13.11l-6.72-3.91c-.56-.31-.48-.86.13-1.22l6.67-3.86A2.54,2.54,0,0,1,277.11,398Zm-43.82-2.08a2,2,0,0,1,1,.2l6.72,3.91c.55.34.5.86-.14,1.25l-6.67,3.86a2.39,2.39,0,0,1-2.13.08l-6.72-3.91c-.56-.3-.5-.86.14-1.22l6.67-3.88A2.36,2.36,0,0,1,233.29,395.93Zm18.06-1.2a1.89,1.89,0,0,1,1,.21l6.69,3.88c.55.33.49.88-.14,1.24l-6.63,3.85a2.31,2.31,0,0,1-2.12.08l-6.66-3.9c-.55-.31-.47-.83.14-1.22l6.6-3.84A2.4,2.4,0,0,1,251.35,394.73Zm30-1.46a1.93,1.93,0,0,1,1,.21l6.71,3.93c.55.31.47.86-.14,1.2l-2.21,1.28a2.28,2.28,0,0,1-2.1.11l-6.74-3.93c-.52-.3-.47-.86.17-1.22l2.18-1.28A2.4,2.4,0,0,1,281.38,393.27Zm-73.77-.51a2.09,2.09,0,0,1,1,.21l6.76,3.91c.52.31.47.86-.17,1.22l-6.7,3.86a2.37,2.37,0,0,1-2.1.11l-6.75-3.91c-.53-.31-.47-.86.17-1.25l6.69-3.86A2.28,2.28,0,0,1,207.61,392.76Zm59.15-.85a1.93,1.93,0,0,1,1,.21l6.75,3.91c.52.3.47.86-.17,1.22l-6.69,3.85a2.26,2.26,0,0,1-2.11.09l-6.75-3.89c-.52-.33-.47-.88.14-1.24l6.7-3.86A2.36,2.36,0,0,1,266.76,391.91Zm-43.93-2a2,2,0,0,1,1,.21l6.74,3.91c.56.31.47.86-.13,1.22l-6.69,3.86a2.27,2.27,0,0,1-2.1.08l-6.74-3.88c-.55-.31-.47-.86.17-1.22l6.65-3.89A2.56,2.56,0,0,1,222.83,390Zm18.2-1.2a1.74,1.74,0,0,1,1,.22l6.68,3.88c.55.31.5.86-.14,1.22L242,398a2.31,2.31,0,0,1-2.09.08l-6.71-3.91c-.53-.31-.47-.86.16-1.22l6.63-3.86A2.54,2.54,0,0,1,241,388.76Zm-62.72-1.11a1.82,1.82,0,0,1,1,.21l6,3.45,40.9,23.6c.57.31.57.86,0,1.19l-8.12,4.69a2.35,2.35,0,0,1-2.1,0l-36-20.81h0l-10.74-6.19c-.55-.34-.46-.89.14-1.22l7.93-4.62A2.39,2.39,0,0,1,178.31,387.65Zm18.85-.85a2,2,0,0,1,1,.2l6.71,3.88c.55.3.47.85-.14,1.2l-6.65,3.82A2.43,2.43,0,0,1,196,396l-6.74-3.88c-.55-.3-.47-.85.16-1.21l6.66-3.82A2.52,2.52,0,0,1,197.16,386.8Zm59.13-.84a1.77,1.77,0,0,1,1,.22l6.75,3.88c.55.34.46.89-.17,1.22l-6.66,3.89a2.33,2.33,0,0,1-2.1.08l-6.74-3.91c-.55-.3-.47-.86.14-1.22l6.68-3.86A2.45,2.45,0,0,1,256.29,386Zm-43.83-2a1.87,1.87,0,0,1,1,.21l6.75,3.91c.55.3.47.83-.17,1.22l-6.67,3.85a2.27,2.27,0,0,1-2.1.09l-6.75-3.89c-.53-.33-.47-.88.14-1.22l6.66-3.88A2.44,2.44,0,0,1,212.46,384Zm18.16-1.22a2.15,2.15,0,0,1,1,.21l6.71,3.91c.56.3.47.86-.16,1.22L231.55,392a2.37,2.37,0,0,1-2.1.09l-6.74-3.91c-.55-.31-.47-.86.14-1.22l6.68-3.86A2.24,2.24,0,0,1,230.62,382.78Zm-43.82-1.95a2,2,0,0,1,1,.21l6.74,3.91c.55.31.47.86-.17,1.22L187.73,390a2.37,2.37,0,0,1-2.1.11l-6.74-3.91c-.55-.31-.47-.86.14-1.22l6.69-3.89A2.37,2.37,0,0,1,186.8,380.83Zm59.09-.84a1.89,1.89,0,0,1,1,.2l6.72,3.91c.52.31.44.86-.17,1.22l-6.66,3.86a2.2,2.2,0,0,1-2.06.11L238,385.38c-.53-.31-.47-.86.16-1.22l6.63-3.86A2.6,2.6,0,0,1,245.89,380Zm-82.68-1a2,2,0,0,1,1,.2L175,385.45c.55.31.5.86-.14,1.22l-7.93,4.6a2.34,2.34,0,0,1-2.09.09l-10.74-6.24c-.55-.31-.49-.86.14-1.22l7.93-4.6A2.29,2.29,0,0,1,163.21,379Zm38.93-1.1a2.11,2.11,0,0,1,1,.21l6.72,3.91c.56.33.5.86-.14,1.22l-6.69,3.89a2.38,2.38,0,0,1-2.11.08l-6.75-3.91c-.52-.31-.47-.86.17-1.22l6.69-3.89A2.45,2.45,0,0,1,202.14,377.91Zm18.13-1.09a2,2,0,0,1,1,.2l6.75,3.87c.53.31.48.86-.16,1.21l-6.7,3.82a2.33,2.33,0,0,1-2.1.08l-6.75-3.87c-.53-.3-.47-.82.16-1.21l6.7-3.82A2.36,2.36,0,0,1,220.27,376.82Zm-43.82-2.07a1.8,1.8,0,0,1,1,.21l6.75,3.91c.55.3.5.86-.14,1.22l-6.69,3.85a2.36,2.36,0,0,1-2.11.11l-6.75-3.91c-.53-.33-.44-.89.17-1.22l6.67-3.88A2.36,2.36,0,0,1,176.45,374.75Zm59.18-.84a1.89,1.89,0,0,1,1,.19l6.75,3.91c.53.31.47.86-.14,1.23l-6.69,3.85a2.26,2.26,0,0,1-2.11.08l-6.75-3.91c-.55-.3-.47-.86.17-1.19l6.67-3.88A2.48,2.48,0,0,1,235.63,373.91Zm-82.75-.86a2,2,0,0,1,1,.2l6.73,3.91c.52.3.47.85-.17,1.21L152.54,383a2.37,2.37,0,0,1-2.12.05l-6.7-3.87c-.55-.34-.5-.86.13-1.25l8-4.57A2.19,2.19,0,0,1,152.88,373.05Zm38.8-1.1a1.87,1.87,0,0,1,1,.21l6.75,3.91c.53.3.47.86-.16,1.22l-6.67,3.88a2.38,2.38,0,0,1-2.11.06l-6.75-3.89c-.55-.3-.47-.86.14-1.22l6.7-3.88A2.35,2.35,0,0,1,191.68,372Zm18.24-1.2a1.74,1.74,0,0,1,1,.22l6.74,3.88c.55.31.47.86-.14,1.22L210.86,380a2.36,2.36,0,0,1-2.1.09L202,376.13c-.55-.31-.47-.84.16-1.22l6.66-3.86A2.45,2.45,0,0,1,209.92,370.75ZM166,368.8a1.72,1.72,0,0,1,1,.22l6.75,3.87c.56.33.47.89-.14,1.25L166.91,378a2.36,2.36,0,0,1-2.11.11l-6.75-3.9c-.52-.33-.47-.88.14-1.24l6.7-3.85A2.54,2.54,0,0,1,166,368.8Zm59.29-.86a2,2,0,0,1,1,.2L233,372c.53.33.48.86-.16,1.24l-6.67,3.85a2.33,2.33,0,0,1-2.13.08l-6.72-3.9c-.56-.3-.48-.86.13-1.22l6.7-3.84A2.69,2.69,0,0,1,225.27,367.94Zm-82.75-.86a1.85,1.85,0,0,1,1,.2l6.73,3.87c.56.3.47.85-.13,1.21l-8,4.56a2.4,2.4,0,0,1-2.1.08l-6.73-3.87c-.52-.3-.47-.82.14-1.21l8-4.55A2.36,2.36,0,0,1,142.52,367.08Zm38.8-1.1a2.09,2.09,0,0,1,1,.21l6.76,3.91c.52.31.47.84-.17,1.22l-6.67,3.86a2.3,2.3,0,0,1-2.13.08l-6.75-3.88c-.53-.31-.47-.86.16-1.25l6.7-3.86A2.4,2.4,0,0,1,181.32,366Zm17.89-1.32a1.72,1.72,0,0,1,1,.22l6.75,3.9c.55.3.47.86-.14,1.22l-6.67,3.84A2.31,2.31,0,0,1,198,374l-6.75-3.9c-.52-.33-.47-.88.17-1.24l6.67-3.85A2.5,2.5,0,0,1,199.21,364.66ZM214.79,362a1.8,1.8,0,0,1,1,.2l6.75,3.91c.55.3.47.86-.14,1.22l-6.67,3.85a2.31,2.31,0,0,1-2.13.11l-6.75-3.91c-.53-.3-.47-.86.17-1.22l6.67-3.85A2.51,2.51,0,0,1,214.79,362Zm-82.71-1a2,2,0,0,1,1,.21l6.73,3.87c.53.3.47.85-.13,1.2l-8,4.56a2.36,2.36,0,0,1-2.1.08L122.9,367c-.55-.3-.47-.85.14-1.2l8-4.56A2.49,2.49,0,0,1,132.08,361Zm91.85-.83a1.84,1.84,0,0,1,1,.22l6.74,3.89c.52.31.44.87-.17,1.23l-2.21,1.31a2.43,2.43,0,0,1-2.1.08L220.49,363c-.52-.34-.47-.87.14-1.23l2.21-1.28A2.54,2.54,0,0,1,223.93,360.16Zm-53.2-.25a1.92,1.92,0,0,1,1,.2l6.72,3.91c.55.3.47.86-.14,1.22l-6.67,3.85a2.34,2.34,0,0,1-2.13.12l-6.72-3.92c-.56-.3-.47-.86.14-1.22l6.66-3.85A2.59,2.59,0,0,1,170.73,359.91Zm17.89-1.47a1.93,1.93,0,0,1,1,.21l6.72,3.91c.55.3.5.86-.14,1.22l-6.67,3.85a2.4,2.4,0,0,1-2.13.11l-6.72-3.91c-.55-.3-.47-.86.14-1.22l6.67-3.85A2.27,2.27,0,0,1,188.62,358.44ZM204.43,356a1.9,1.9,0,0,1,1,.2l6.75,3.91c.56.31.47.86-.16,1.22l-6.67,3.86a2.25,2.25,0,0,1-2.1.11l-6.76-3.91c-.52-.31-.47-.86.14-1.22l6.67-3.86A2.34,2.34,0,0,1,204.43,356Zm-62.08-.84a1.82,1.82,0,0,1,1,.22l19.78,11.44c.55.31.49.86-.14,1.22l-6.65,3.84a2.31,2.31,0,0,1-2.12.09l-19.78-11.45c-.56-.3-.47-.86.13-1.22l6.65-3.84A2.54,2.54,0,0,1,142.35,355.17Zm71.24-1a1.91,1.91,0,0,1,1,.21l6.74,3.92c.53.31.47.86-.16,1.23L219,360.82a2.27,2.27,0,0,1-2.1.08l-6.74-3.9c-.53-.33-.47-.89.13-1.22l2.21-1.31A2.43,2.43,0,0,1,213.59,354.18Zm-35.68-1.81a1.79,1.79,0,0,1,1,.22l6.74,3.88c.55.33.47.86-.16,1.25l-6.66,3.86a2.43,2.43,0,0,1-2.13.08L170,357.75c-.55-.31-.47-.86.14-1.22l6.68-3.86A2.53,2.53,0,0,1,177.91,352.37ZM194.1,350a2,2,0,0,1,1,.21l6.76,3.91c.52.3.47.86-.17,1.22l-6.7,3.86a2.27,2.27,0,0,1-2.1.08l-6.75-3.89c-.53-.33-.47-.88.16-1.24l6.67-3.86A2.43,2.43,0,0,1,194.1,350Zm-41.64-.73a1.89,1.89,0,0,1,1,.2l14.46,8.34c.52.31.47.86-.14,1.21l-6.66,3.83a2.28,2.28,0,0,1-2.1.11l-14.46-8.34c-.55-.33-.5-.85.14-1.21l6.66-3.85A2.39,2.39,0,0,1,152.46,349.31Zm50.9-1.1a2.13,2.13,0,0,1,1,.21l6.71,3.87c.55.3.5.85-.14,1.21l-2.21,1.26a2.37,2.37,0,0,1-2.1.09L199.92,351c-.52-.3-.47-.85.17-1.21l2.18-1.26A2.53,2.53,0,0,1,203.36,348.21Zm-19.58-4.14a2,2,0,0,1,1,.21l6.75,3.87c.53.31.47.83-.17,1.21l-6.66,3.82a2.35,2.35,0,0,1-2.11.08l-6.75-3.87c-.55-.3-.5-.85.14-1.21l6.7-3.82A2.49,2.49,0,0,1,183.78,344.07Zm-21.2-.59a1.91,1.91,0,0,1,1,.22l11.72,6.74c.55.32.47.85-.14,1.2l-6.65,3.85a2.41,2.41,0,0,1-2.12.09l-11.75-6.77c-.55-.3-.47-.85.17-1.21l6.64-3.82A2.54,2.54,0,0,1,162.58,343.48ZM193,342.27a1.82,1.82,0,0,1,1,.22l6.71,3.89c.56.34.5.87-.13,1.23l-2.19,1.28a2.29,2.29,0,0,1-2.12.11l-6.74-3.93c-.53-.33-.47-.86.16-1.22l2.21-1.28A2.29,2.29,0,0,1,193,342.27ZM173.41,338a2,2,0,0,1,1,.21l6.73,3.91c.55.33.5.86-.14,1.25l-6.7,3.85a2.37,2.37,0,0,1-2.1.09l-6.75-3.91c-.53-.31-.47-.86.16-1.23l6.67-3.85A2.31,2.31,0,0,1,173.41,338Zm6.11-3.53a2,2,0,0,1,1,.21l6.74,3.92c.53.31.47.87-.14,1.23l-2.21,1.28a2.29,2.29,0,0,1-2.12.11l-6.72-3.92c-.55-.31-.47-.87.14-1.23l2.21-1.28A2.35,2.35,0,0,1,179.52,334.46Z"/><path class="cls-14" d="M174.1,450.62h0a6.15,6.15,0,0,0,5.43-.27l34.32-19.81h0c.72-.41,1.13-.91,1.13-1.35h0c0-.38-.41-.68-.69-.85l-51.85-29.91h0a6.07,6.07,0,0,0-5.44.27l-34.35,19.81h0c-.69.38-1.1.88-1.1,1.32h0c0,.41.41.72.66.85Zm2.29,2.15h0a6.07,6.07,0,0,1-3.12-.77h0l-51.89-29.88h0a2.7,2.7,0,0,1-1.46-2.29h0a3.38,3.38,0,0,1,1.93-2.76L156.2,397.3h0a7.66,7.66,0,0,1,7.06-.28l51.86,29.92h0a2.59,2.59,0,0,1,1.49,2.25h0a3.34,3.34,0,0,1-1.93,2.76l-34.35,19.8h0A8,8,0,0,1,176.39,452.77Z"/><path class="cls-17" d="M165.15,429.48a2.12,2.12,0,0,1,.94.25c.55.31.61.8.14,1l-3.06,1.75a2.17,2.17,0,0,1-1.84-.08c-.54-.34-.57-.81-.1-1.06l3-1.74A1.77,1.77,0,0,1,165.15,429.48Zm26.64-5.59a2.23,2.23,0,0,1,1,.24c.55.34.6.81.11,1.09l-9.68,5.45a2,2,0,0,1-1.85-.08c-.55-.31-.61-.78-.14-1l9.71-5.48A1.67,1.67,0,0,1,191.79,423.89Zm-14.7-1.1a2.15,2.15,0,0,1,.95.24c.53.34.58.8.11,1.08l-8.48,4.74a2.15,2.15,0,0,1-1.88-.08c-.52-.3-.58-.77-.11-1l8.51-4.74A1.71,1.71,0,0,1,177.09,422.79Zm-15.12-1a2.31,2.31,0,0,1,.95.25c.56.33.61.77.14,1l-7.51,4.17a2.12,2.12,0,0,1-1.85-.08c-.55-.33-.61-.77-.14-1l7.51-4.17A1.81,1.81,0,0,1,162,421.81Zm25.8-.24a2,2,0,0,1,.93.28c.55.3.64.77.17,1l-14.82,8.32a2.12,2.12,0,0,1-1.82-.08c-.55-.33-.64-.8-.17-1.05l14.82-8.32A1.77,1.77,0,0,1,187.77,421.57Zm-4.23-2.43a2.2,2.2,0,0,1,1,.24c.52.33.58.79.11,1.06l-3.17,1.75a2.21,2.21,0,0,1-1.84-.08c-.56-.3-.58-.79-.11-1l3.16-1.74A1.7,1.7,0,0,1,183.54,419.14Zm-13.17-2.07a2.05,2.05,0,0,1,.95.27c.55.3.61.76.14,1l-5.11,2.81a2.06,2.06,0,0,1-1.82-.09c-.55-.32-.61-.79-.14-1l5.08-2.81A1.71,1.71,0,0,1,170.37,417.07Zm9-.24a2,2,0,0,1,1,.27c.55.3.61.77.14,1L172,422.91a2,2,0,0,1-1.83-.11c-.55-.3-.61-.77-.16-1l8.51-4.79A1.67,1.67,0,0,1,179.37,416.83Zm-4.11-2.44a2,2,0,0,1,.93.24c.55.33.61.79.14,1l-2,1.15a2.12,2.12,0,0,1-1.85-.09c-.55-.29-.6-.78-.11-1.06l2-1.11A1.8,1.8,0,0,1,175.26,414.39Zm-14-1.56a2.23,2.23,0,0,1,1,.28c.52.31.6.78.13,1l-6.66,3.78a2.19,2.19,0,0,1-1.85-.08c-.55-.33-.61-.78-.14-1.06l6.67-3.78A1.58,1.58,0,0,1,161.24,412.83Zm9.86-.75a2.18,2.18,0,0,1,1,.27c.56.31.61.78.14,1L162,419.14a2.19,2.19,0,0,1-1.85-.08c-.52-.34-.61-.81-.14-1.08l10.2-5.74A1.78,1.78,0,0,1,171.1,412.08ZM167,409.64a2.35,2.35,0,0,1,1,.24c.55.33.6.79.11,1l-2.51,1.38a2.09,2.09,0,0,1-1.84-.05c-.55-.33-.61-.79-.14-1.06l2.53-1.39A1.92,1.92,0,0,1,167,409.64Zm-4-2.41a2.14,2.14,0,0,1,1,.28c.55.3.61.76.13,1l-4.85,2.68a2.09,2.09,0,0,1-1.85-.08c-.53-.3-.59-.79-.12-1.07L162,407.4A1.6,1.6,0,0,1,162.94,407.23Z"/><path class="cls-14" d="M311.24,358.27h0a6.68,6.68,0,0,1-3.31-.89L262.21,330.9h0a4.49,4.49,0,0,1-2.29-3.94h0a4.52,4.52,0,0,1,2.21-4l12.65-7.66h0a.91.91,0,0,1,1.21.27h0a.89.89,0,0,1-.31,1.22L263,324.45h0a2.86,2.86,0,0,0-1.4,2.48h0a2.84,2.84,0,0,0,1.46,2.45l45.72,26.49h0a4.78,4.78,0,0,0,5-.06l15.74-9.64h0a.92.92,0,0,1,1.21.3h0a.88.88,0,0,1-.3,1.18l-15.76,9.62h0a6.44,6.44,0,0,1-3.42,1"/><path class="cls-2" d="M193.89,306.23l-18.2-10.49-18.22,10.49,18.22,10.49,18.2-10.49"/><path class="cls-3" d="M181,292.31V226.8l15.52-8.93v65.48l-15.52,9"/><path class="cls-29" d="M181,226.8l-15.52-8.93v65.48l15.52,9V226.8"/><path class="cls-5" d="M196.44,217.93,181,209l-15.47,8.93,15.47,8.9,15.48-8.9"/><path class="cls-6" d="M196.56,295.33,181,286.38v6l15.52,8.95v-6"/><path class="cls-7" d="M165.49,301.3V253.65L181,244.72v47.65l-15.52,8.93"/><path class="cls-8" d="M165.58,253.65l-15.53-8.93v47.65l15.53,8.93V253.65"/><path class="cls-9" d="M181,244.76l-15.48-8.91-15.48,8.91,15.48,8.92L181,244.76"/><path class="cls-10" d="M165.49,301.3V253.65L181,244.72v47.65l-15.52,8.93"/><path class="cls-10" d="M165.58,253.65l-15.53-8.93v47.65l15.53,8.93V253.65"/><path class="cls-11" d="M181,244.76l-15.48-8.91-15.48,8.91,15.48,8.92L181,244.76"/><path class="cls-12" d="M181,310.28V283.42l15.52-8.94v26.84l-15.52,9"/><path class="cls-13" d="M181,283.42l-15.52-8.94v26.84l15.52,9V283.42"/><path class="cls-14" d="M196.44,274.4,181,265.49l-15.47,8.91L181,283.32l15.48-8.92"/><path class="cls-28" d="M336.77,246.78a12.11,12.11,0,0,1,4.14.74l.16,3.26a1.91,1.91,0,0,1-.93,1.71,3.58,3.58,0,0,1-2.41.35c-2.38-.35-2.6-1-2.77-4.3C334.9,247.31,335.72,246.86,336.77,246.78Zm-11.67-6.21a12.2,12.2,0,0,1,4.15.74l.14,3.27a1.84,1.84,0,0,1-.93,1.7,3.68,3.68,0,0,1-2.41.38c-2.39-.38-2.58-1-2.74-4.33C323.23,241.1,324.05,240.66,325.1,240.57Z"/><path class="cls-12" d="M337.83,249.09a5.52,5.52,0,0,1,1.82.49s1,.63,1.54,1a5.27,5.27,0,0,1,.89,4c-.34,1.51-5.66,9.24-7.51,10.13s-4.92,1.15-4.83-2.65,2.87-9.33,4.8-11.7A3.63,3.63,0,0,1,337.83,249.09Zm-11.58-6.31a5.56,5.56,0,0,1,1.81.5,17.69,17.69,0,0,1,1.54,1,5.16,5.16,0,0,1,.91,4c-.33,1.52-5.67,9.33-7.52,10.24s-4.9,1.13-4.79-2.66,2.84-9.43,4.77-11.78A3.56,3.56,0,0,1,326.25,242.78Z"/><path class="cls-14" d="M352.8,176.2c2.23-.1,3.95,1.47,4.25,6.23L357,186l.2-.18c4.64-3.78,10.94-7,11.51,2.5,1,15.22-8.23,19.14-8.23,19.14l-20.19,12.13.71,27.64a3.59,3.59,0,0,1-3.2,3.81,10.34,10.34,0,0,1-1.47.14,2.93,2.93,0,0,1-2.9-2.51l-3.89-29.57a9.44,9.44,0,0,1,1.18-5.92l.93-1.26-3.05,1.83.72,27.61a3.62,3.62,0,0,1-3.21,3.83,8.77,8.77,0,0,1-1.43.12,2.9,2.9,0,0,1-2.93-2.51l-3.9-29.55a9.51,9.51,0,0,1,2.41-7.61l9.61-10.51,10.67-10.45S347.89,176.41,352.8,176.2Z"/><path class="cls-5" d="M359.35,139.46h0c11.81,4.88,11.56,11.82,11.56,11.82h0s-2.32,25.57-1.52,42.63h0c.34,7.11-37.93,7.66-32.22-11.35h0c6.73-22.43,4.19-40.59,7.34-43.35h0c3.14-2.72,11.78-1,14.84.25"/><path class="cls-1" d="M363.12,145.59h0c-.61,2.39-3.74,3.62-7,2.8h0c-3.22-.82-5.36-3.46-4.73-5.82h0c.6-2.42,3.71-3.65,6.95-2.83h0c3.25.85,5.39,3.46,4.76,5.85"/><path class="cls-17" d="M356.41,140h0c-2.18,0-4,1-4.44,2.66h0a3.4,3.4,0,0,0,.83,3h0a6.56,6.56,0,0,0,3.53,2.14h0a6.91,6.91,0,0,0,4.17-.17h0a3.28,3.28,0,0,0,2.15-2.25h0a3.33,3.33,0,0,0-.8-3h0a6.74,6.74,0,0,0-3.56-2.14h0A7.31,7.31,0,0,0,356.41,140Zm1.8,9.17h0a8.58,8.58,0,0,1-2.16-.27h0a7.93,7.93,0,0,1-4.11-2.53h0a4.41,4.41,0,0,1-1.05-4h0c.69-2.69,4.14-4.12,7.68-3.22h0a7.7,7.7,0,0,1,4.14,2.53h0a4.37,4.37,0,0,1,1,4h0a4.5,4.5,0,0,1-2.84,3h0A8.08,8.08,0,0,1,358.21,149.21Z"/><path class="cls-1" d="M354.56,138.94h0a28,28,0,0,1-.08,4.24h0c-.06,1.19,4,2.27,5.08,1.21h0c1.07-1.08.63-2.18.88-6.2h0c.27-4-5.88.75-5.88.75"/><path class="cls-30" d="M360.59,138.19h0s-1,3.68-6,5.07l.09-3.33,6-1.74"/><path class="cls-1" d="M363.61,128.73h0a9.08,9.08,0,0,1-6.49,11.07h0a9,9,0,0,1-11-6.52h0a9.06,9.06,0,0,1,6.49-11.07h0a9.06,9.06,0,0,1,11,6.52"/><path class="cls-30" d="M357,131.37h0s-5,2.12-8.45,2.17h0c-3.43,0-2.66-2.88-2.66-2.88l10.23-1.46.88,2.17"/><path class="cls-11" d="M347.45,131.94h0s4.34-1.87,8.14-1.1h0a4,4,0,0,1,2.32,1.38h0a1.3,1.3,0,0,0,.68.49h0c.69.17,1.79-2.64,3.11-2.7h0c1.33-.08,2.18.86,1.13,2.59h0c-1.1,1.71-.74,3.67-.24,4h0c.52.27,5.78-3.75,1.12-13h0c-4.65-9.18-16.43-4.22-18.25-2.37h0s-1.92,1.68-3.52.19h0s-1.73,13.21,5.51,10.56"/><path class="cls-1" d="M372.43,166l-1.3,13.37a3.66,3.66,0,0,1-1.55,2.7l-18.74,12.26,0,.07-.38.78a5.13,5.13,0,0,1-1.91,2.14l-2.29,1.41a2.25,2.25,0,0,1-2.32.06l-.09-.06a1.43,1.43,0,0,1-.19-2.14l2.4-2.44s-1.35,1-1.74.61,1.3-1.8,2.52-1.83a4.54,4.54,0,0,0,2.17-.85l.19-.15,0-.05,14.22-12.95a2.88,2.88,0,0,0,.91-2.07v-6.94Z"/><path class="cls-5" d="M369.89,147.78h0s4.29,6.46,5.89,23.46h0s-7.32,2.39-11.5,1h0c-4.15-1.32,5.61-24.47,5.61-24.47"/><path class="cls-1" d="M342.49,161.42l-2.44,4.85h0a9.56,9.56,0,0,0-1,3.71L338,186.63l-3.23-.09-1.45-18.7h0a7.44,7.44,0,0,1,.11-1.74l1.64-9.45,7.43,4.77"/><path class="cls-13" d="M359.83,200.79l-3.11-.38-20.24-11.7h0a2.85,2.85,0,0,0-2.53.14l-14.29,8.26-1.9-.28v1.9h0a.66.66,0,0,0,.44.66l22.88,13.24h0a2.93,2.93,0,0,0,2.53-.11l15.62-9h0c.41-.25.63-.58.6-.85v-1.88"/><path class="cls-26" d="M344.67,193.46l-1.43-.85h-15.8l-7.78,4.52-1.9-.27v1.9h0a.68.68,0,0,0,.44.67l22.92,13.28h0a2.5,2.5,0,0,0,1.32.25l2.23-19.5"/><path class="cls-31" d="M318.55,197l-.8-.13v1.89h0a.67.67,0,0,0,.43.65l.37.22V197"/><path class="cls-28" d="M341.1,210.66l-22.93-13.21h0c-.68-.38-.57-1,.17-1.45L334,187h0a2.86,2.86,0,0,1,2.54-.11l22.95,13.2h0c.66.39.58,1-.16,1.46l-15.64,9h0a2.79,2.79,0,0,1-2.54.11"/><path class="cls-32" d="M340.7,208.65l-19.05-11h0c-.52-.3-.46-.85.17-1.21l8.34-4.69h0a2.41,2.41,0,0,1,2.12-.09l19,11h0c.55.33.47.85-.14,1.21l-8.33,4.69h0a2.32,2.32,0,0,1-2.12.09"/><path class="cls-1" d="M334.78,186.56l-.21,1.6h0a11.81,11.81,0,0,0,.1,4.06l.28,1.38h0a2,2,0,0,0,1.56,1.54h0a1.06,1.06,0,0,0,1.25-.94l.39-3.39h0s.84,1.13,1.25,1.13h0c.41,0-.46-3.37-1.39-5.3h0c-.93-1.93-3.23-.08-3.23-.08"/><path class="cls-12" d="M340.36,212l-1.93-2.51-20.21-11.69h0a2.83,2.83,0,0,1-1.18-2.26l0-16.57-1.15-1.51,1.07-.61h0a.69.69,0,0,1,.8,0l22.91,13.26h0a2.78,2.78,0,0,1,1.19,2.26l0,18h0a1.08,1.08,0,0,1-.41,1l-1.08.6"/><path class="cls-13" d="M326.36,202.54l-1.43-.83L317,188l0-9-1.15-1.51,1.07-.61h0a.69.69,0,0,1,.8,0l22.86,13.26h0a2.41,2.41,0,0,1,.88,1l-15.16,11.37"/><path class="cls-31" d="M316.4,178.12l-.49-.67,1.07-.59h0a.69.69,0,0,1,.79,0l.42.24-1.79,1"/><path class="cls-13" d="M340.81,190.3h0a2.91,2.91,0,0,1,.95,1.94l-2.2,1.31-1.05-1.89,2.3-1.36"/><path class="cls-28" d="M339.51,190.82,316.6,177.56h0c-.63-.38-1.15,0-1.15.89l0,18h0a2.79,2.79,0,0,0,1.18,2.26L339.48,212h0c.63.39,1.18,0,1.18-.88v-18h0a2.79,2.79,0,0,0-1.15-2.26"/><path class="cls-5" d="M344.79,139.16h0s-8.71,9.48-12.24,18.19h0a17.83,17.83,0,0,0,10.28,7.5h0c7.31,2.1,2-25.69,2-25.69"/><path class="cls-3" d="M363.55,156.05V172a2.75,2.75,0,0,1-1.77-2.63C361.86,165.08,363.55,156.05,363.55,156.05Zm-21.06-5.47-1.38,13.6a18.08,18.08,0,0,1-1.88-.85Z"/><path class="cls-17" d="M351.28,137.26l-2.33-.65h0a5.52,5.52,0,0,0,2.74,2.18h0c1.61.46,1.85-.9,1.85-.9l-2.26-.63"/><path class="cls-2" d="M91.41,362.43l-26.14-15.1h0c-1.6-.94-1.41-2.57.44-3.61L91,329.11h0a7,7,0,0,1,6.26-.25L123.37,344h0c1.63.93,1.41,2.53-.44,3.61L97.67,362.15h0a6.8,6.8,0,0,1-6.26.28"/><path class="cls-33" d="M132,332.43h0V321.15h-25.3l-8.75-5.07h0c-2-1.15-5.54-1-7.85.33l-8.18,4.71H56.55v11.59h0a2.3,2.3,0,0,0,1.35,2.12l32.74,18.88h0c2,1.15,5.5,1,7.82-.3l31.6-18.28h0c1.32-.74,2-1.73,1.9-2.7"/><path class="cls-33" d="M94.26,315.29h0a9.3,9.3,0,0,0-4.21,1.1l-8.18,4.71H56.55v11.58h0a2.3,2.3,0,0,0,1.35,2.12l32.73,18.87h0a7.11,7.11,0,0,0,3.63.8V315.29"/><path class="cls-34" d="M59.39,321.12H56.55v11.56h0a2.28,2.28,0,0,0,1.34,2.11l1.5.88V321.12"/><path class="cls-34" d="M91.13,353.88h0a9.19,9.19,0,0,0,6.29-.05V340.68H91.13v13.2"/><path class="cls-35" d="M90.64,342.17,57.9,323.28h0c-2-1.19-1.76-3.2.55-4.55L90.06,300.5h0c2.31-1.35,5.84-1.49,7.85-.33l32.73,18.89h0c2,1.16,1.74,3.2-.58,4.55l-31.6,18.23h0c-2.32,1.35-5.84,1.48-7.82.33"/><path class="cls-34" d="M91.23,338.69,63.77,322.86h0c-1.68-1-1.49-2.65.47-3.77L90.76,303.8h0a7.14,7.14,0,0,1,6.56-.27l27.45,15.83h0c1.69,1,1.49,2.64-.46,3.77L97.79,338.41h0a7.21,7.21,0,0,1-6.56.28"/><path class="cls-33" d="M132,314.33h0V303.05l-25.3,0-8.75-5h0c-2-1.15-5.54-1-7.85.33L81.88,303l-25.33,0v11.62h0a2.26,2.26,0,0,0,1.35,2.09l32.74,18.91h0c2,1.15,5.5,1,7.82-.33L130.06,317h0a3.07,3.07,0,0,0,1.9-2.7"/><path class="cls-33" d="M94.26,297.19h0a9.32,9.32,0,0,0-4.21,1.13L81.87,303l-25.32,0v11.61h0a2.26,2.26,0,0,0,1.35,2.09l32.73,18.9h0a7.11,7.11,0,0,0,3.63.77V297.19"/><path class="cls-34" d="M59.39,303H56.55v11.66h0a2.27,2.27,0,0,0,1.34,2.1l1.5.91V303"/><path class="cls-34" d="M91.13,335.9h0a9,9,0,0,0,6.29-.09V322.58H91.13V335.9"/><path class="cls-35" d="M90.64,324,57.9,305.16h0c-2-1.15-1.76-3.16.55-4.51L90.06,282.4h0c2.31-1.32,5.84-1.48,7.85-.33L130.64,301h0c2,1.15,1.74,3.16-.58,4.51l-31.6,18.25h0c-2.32,1.32-5.84,1.49-7.82.3"/><path class="cls-34" d="M91.23,320.62,63.77,304.77h0c-1.68-1-1.49-2.67.47-3.8l26.52-15.29h0a7.3,7.3,0,0,1,6.56-.28l27.45,15.85h0c1.69,1,1.49,2.67-.46,3.77L97.79,320.34h0a7.3,7.3,0,0,1-6.56.28"/><path class="cls-33" d="M132,296.22h0V285l-25.3,0-8.75-5.07h0c-2-1.15-5.54-1-7.85.36l-8.18,4.68H56.55V296.5h0a2.3,2.3,0,0,0,1.35,2.11l32.74,18.87h0c2,1.19,5.5,1,7.82-.3L130.06,299h0c1.32-.78,2-1.77,1.9-2.73"/><path class="cls-33" d="M94.26,279.09h0a9.07,9.07,0,0,0-4.21,1.13l-8.18,4.68H56.55v11.58h0a2.3,2.3,0,0,0,1.35,2.12l32.73,18.88h0a7.11,7.11,0,0,0,3.63.79V279.09"/><path class="cls-34" d="M59.39,284.92H56.55v11.56h0a2.27,2.27,0,0,0,1.34,2.11l1.5.88V284.92"/><path class="cls-34" d="M91.13,317.8h0a9,9,0,0,0,6.29-.05V304.6H91.13v13.2"/><path class="cls-35" d="M90.64,306,57.9,287.08h0c-2-1.16-1.76-3.2.55-4.52L90.06,264.3h0a8.8,8.8,0,0,1,7.85-.35l32.73,18.91h0c2,1.16,1.74,3.2-.58,4.55l-31.6,18.23h0c-2.32,1.35-5.84,1.49-7.82.33"/><path class="cls-34" d="M91.23,302.64,63.77,286.81h0c-1.68-1-1.49-2.67.47-3.83L90.76,267.7h0a7.2,7.2,0,0,1,6.56-.25l27.45,15.81h0c1.69,1,1.49,2.69-.46,3.82L97.79,302.36h0a7.36,7.36,0,0,1-6.56.28"/><path class="cls-33" d="M132,278.26h0V267h-25.3l-8.75-5.06h0c-2-1.16-5.54-1-7.85.33l-8.18,4.7-25.33,0v11.61h0a2.26,2.26,0,0,0,1.35,2.09l32.74,18.91h0c2,1.16,5.5,1,7.82-.33L130.06,281h0c1.32-.77,2-1.76,1.9-2.69"/><path class="cls-33" d="M94.26,261.12h0a8.82,8.82,0,0,0-4.21,1.1l-8.18,4.71-25.32,0v11.62h0a2.26,2.26,0,0,0,1.35,2.09l32.73,18.92h0a7.22,7.22,0,0,0,3.63.77V261.12"/><path class="cls-34" d="M59.39,267H56.55v11.66h0a2.25,2.25,0,0,0,1.34,2.09l1.5.92V267"/><path class="cls-34" d="M91.13,299.82h0a9,9,0,0,0,6.29-.08V286.5H91.13v13.32"/><path class="cls-35" d="M90.64,288,57.9,269.07h0c-2-1.15-1.76-3.16.55-4.51l31.61-18.21h0c2.31-1.35,5.84-1.51,7.85-.35l32.73,18.89h0c2,1.15,1.74,3.19-.58,4.51l-31.6,18.26h0c-2.32,1.35-5.84,1.49-7.82.3"/><path class="cls-34" d="M91.23,284.54,63.77,268.68h0c-1.68-1-1.49-2.67.47-3.8L90.76,249.6h0a7.26,7.26,0,0,1,6.56-.27l27.45,15.82h0c1.69,1,1.49,2.68-.46,3.81l-26.52,15.3h0a7.3,7.3,0,0,1-6.56.28"/><path class="cls-33" d="M132,260.17h0V248.88l-25.3,0-8.75-5.07h0c-2-1.13-5.54-1-7.85.33l-8.18,4.71H56.55v11.6h0a2.29,2.29,0,0,0,1.35,2.09l32.74,18.92h0c2,1.16,5.5,1,7.82-.33l31.6-18.26h0c1.32-.77,2-1.76,1.9-2.67"/><path class="cls-33" d="M94.26,243h0a9.17,9.17,0,0,0-4.21,1.1l-8.18,4.71H56.55v11.59h0a2.29,2.29,0,0,0,1.35,2.09l32.73,18.92h0a7.22,7.22,0,0,0,3.63.77V243"/><path class="cls-34" d="M59.39,248.85H56.55v11.58h0a2.28,2.28,0,0,0,1.34,2.09l1.5.88V248.85"/><path class="cls-34" d="M91.13,281.73h0a9.19,9.19,0,0,0,6.29-.06V268.53H91.13v13.2"/><path class="cls-35" d="M90.64,269.89,57.9,251h0c-2-1.16-1.76-3.2.55-4.55l31.61-18.24h0c2.31-1.35,5.84-1.49,7.85-.33l32.73,18.9h0c2,1.18,1.74,3.2-.58,4.55l-31.6,18.21h0c-2.32,1.35-5.84,1.49-7.82.33"/><path class="cls-34" d="M91.23,266.56,63.77,250.75h0c-1.68-1-1.49-2.68.47-3.81l26.52-15.29h0a7.08,7.08,0,0,1,6.56-.27l27.45,15.84h0c1.69,1,1.49,2.64-.46,3.8L97.79,266.29h0a7.36,7.36,0,0,1-6.56.27"/><path class="cls-33" d="M132,242.09h0V230.77h-25.3l-8.75-5h0c-2-1.19-5.54-1-7.85.3l-8.18,4.71H56.55v11.61h0a2.29,2.29,0,0,0,1.35,2.09l32.74,18.86h0c2,1.18,5.5,1,7.82-.31l31.6-18.22h0c1.32-.77,2-1.76,1.9-2.69"/><path class="cls-33" d="M94.26,224.92h0a9.17,9.17,0,0,0-4.21,1.1l-8.18,4.71H56.55v11.62h0a2.29,2.29,0,0,0,1.35,2.09L90.63,263.3h0a6.92,6.92,0,0,0,3.63.8V224.92"/><path class="cls-34" d="M59.39,230.75H56.55v11.58h0a2.28,2.28,0,0,0,1.34,2.09l1.5.88V230.75"/><path class="cls-34" d="M91.13,263.5h0a9,9,0,0,0,6.29-.05V250.3H91.13v13.2"/><path class="cls-35" d="M90.64,251.79,57.9,232.9h0c-2-1.18-1.76-3.19.55-4.54l31.61-18.23h0c2.31-1.35,5.84-1.49,7.85-.33l32.73,18.89h0c2,1.15,1.74,3.19-.58,4.54l-31.6,18.23h0c-2.32,1.35-5.84,1.49-7.82.33"/><path class="cls-36" d="M130.19,231,98.55,249.25h0c-2.31,1.33-5.84,1.49-7.82.31L58,230.64h0a2.89,2.89,0,0,1-1-.89h0c-.71,1.11-.38,2.32,1,3.12l32.77,18.92h0c2,1.16,5.51,1,7.82-.33l31.64-18.26h0c1.79-1,2.34-2.51,1.54-3.67h0a4.08,4.08,0,0,1-1.54,1.44"/><path class="cls-36" d="M87.05,347.44a1,1,0,0,1,1,.09A3.14,3.14,0,0,1,89.41,350c0,.91-.6,1.24-1.37.8a3.07,3.07,0,0,1-1.4-2.4A1,1,0,0,1,87.05,347.44ZM82.67,345a1,1,0,0,1,1,.1A3.15,3.15,0,0,1,85,347.52c0,.89-.61,1.25-1.37.8a3.05,3.05,0,0,1-1.4-2.4A1,1,0,0,1,82.67,345Zm4.38-2.8a1,1,0,0,1,1,.1,3,3,0,0,1,1.37,2.42c0,.89-.6,1.25-1.37.8a3.09,3.09,0,0,1-1.4-2.42A1,1,0,0,1,87.05,342.2Zm-4.38-2.43a1,1,0,0,1,1,.09A3.07,3.07,0,0,1,85,342.29c0,.88-.61,1.24-1.37.8a3.11,3.11,0,0,1-1.4-2.43A.94.94,0,0,1,82.67,339.77Zm37-5a.88.88,0,0,1,.38.83,2.86,2.86,0,0,1-1.32,2.31c-.75.41-1.33.08-1.33-.77a2.88,2.88,0,0,1,1.33-2.28A1,1,0,0,1,119.7,334.75Zm4.26-2.54a.94.94,0,0,1,.38.86,2.9,2.9,0,0,1-1.31,2.26c-.75.41-1.34.09-1.34-.76a2.85,2.85,0,0,1,1.34-2.26A.9.9,0,0,1,124,332.21Zm4.26-2.43a.94.94,0,0,1,.38.86,2.81,2.81,0,0,1-1.32,2.23c-.75.44-1.33.08-1.33-.73a2.8,2.8,0,0,1,1.33-2.26A.92.92,0,0,1,128.22,329.78Zm-41.17-.48a1,1,0,0,1,1,.12,3,3,0,0,1,1.37,2.4c0,.91-.6,1.24-1.37.8a3.06,3.06,0,0,1-1.4-2.42A1,1,0,0,1,87.05,329.3Zm-4.38-2.55a1,1,0,0,1,1,.09A3.15,3.15,0,0,1,85,329.27c0,.88-.61,1.24-1.37.8a3.07,3.07,0,0,1-1.4-2.4A1,1,0,0,1,82.67,326.75Zm4.38-2.68a1,1,0,0,1,1,.09,3,3,0,0,1,1.37,2.4c0,.91-.6,1.27-1.37.83a3.12,3.12,0,0,1-1.4-2.43A1,1,0,0,1,87.05,324.07Zm-4.38-2.56a1,1,0,0,1,1,.1A3.05,3.05,0,0,1,85,324c0,.89-.61,1.24-1.37.8a3.1,3.1,0,0,1-1.4-2.42A1,1,0,0,1,82.67,321.51Zm37-4.89a.9.9,0,0,1,.38.85,2.89,2.89,0,0,1-1.32,2.28c-.75.41-1.33.06-1.33-.76a2.81,2.81,0,0,1,1.33-2.26A1,1,0,0,1,119.7,316.62Zm4.26-2.44a.94.94,0,0,1,.38.86,2.86,2.86,0,0,1-1.31,2.28c-.75.41-1.34.08-1.34-.74a2.9,2.9,0,0,1,1.34-2.31A1,1,0,0,1,124,314.18Zm4.26-2.42a.93.93,0,0,1,.38.85,2.83,2.83,0,0,1-1.32,2.27c-.75.41-1.33.09-1.33-.76a2.91,2.91,0,0,1,1.33-2.28A.93.93,0,0,1,128.22,311.76Zm-41.17-.46a.94.94,0,0,1,1,.11,3,3,0,0,1,1.37,2.4c0,.88-.6,1.24-1.37.8a3.08,3.08,0,0,1-1.4-2.43A1,1,0,0,1,87.05,311.3Zm-4.38-2.57a1,1,0,0,1,1,.09A3.1,3.1,0,0,1,85,311.23c0,.91-.61,1.27-1.37.8a3,3,0,0,1-1.4-2.38A1,1,0,0,1,82.67,308.73Zm4.38-2.68a1,1,0,0,1,1,.1,3,3,0,0,1,1.37,2.4c0,.91-.6,1.27-1.37.83a3.09,3.09,0,0,1-1.4-2.43A1,1,0,0,1,87.05,306.05Zm-4.38-2.54a.94.94,0,0,1,1,.11A3,3,0,0,1,85,306c0,.88-.61,1.23-1.37.79a3,3,0,0,1-1.4-2.41A1,1,0,0,1,82.67,303.51Zm37-4.91a.94.94,0,0,1,.38.86,2.85,2.85,0,0,1-1.32,2.28c-.75.41-1.33.08-1.33-.77a2.88,2.88,0,0,1,1.33-2.28A1,1,0,0,1,119.7,298.6Zm4.26-2.55a.92.92,0,0,1,.38.86,2.89,2.89,0,0,1-1.31,2.27c-.75.41-1.34.08-1.34-.77a2.83,2.83,0,0,1,1.34-2.27A.92.92,0,0,1,124,296.05Zm4.26-2.42a.94.94,0,0,1,.38.86,2.79,2.79,0,0,1-1.32,2.23c-.75.44-1.33.09-1.33-.73a2.8,2.8,0,0,1,1.33-2.26A.92.92,0,0,1,128.22,293.63Zm-41.17-.48a1,1,0,0,1,1,.1,3,3,0,0,1,1.37,2.42c0,.89-.6,1.25-1.37.8a3.05,3.05,0,0,1-1.4-2.4A1,1,0,0,1,87.05,293.15Zm-4.38-2.56a1,1,0,0,1,1,.1A3.12,3.12,0,0,1,85,293.12c0,.88-.61,1.24-1.37.8a3.08,3.08,0,0,1-1.4-2.43A1,1,0,0,1,82.67,290.59Zm4.38-2.67a1,1,0,0,1,1,.09,3,3,0,0,1,1.37,2.43c0,.88-.6,1.24-1.37.77a3,3,0,0,1-1.4-2.4A1,1,0,0,1,87.05,287.92Zm-4.38-2.56a1,1,0,0,1,1,.1,3,3,0,0,1,1.37,2.4c0,.91-.61,1.27-1.37.82a3.1,3.1,0,0,1-1.4-2.42A1,1,0,0,1,82.67,285.36Zm37-4.88a.91.91,0,0,1,.38.84,2.83,2.83,0,0,1-1.32,2.26c-.75.43-1.33.08-1.33-.74a2.88,2.88,0,0,1,1.33-2.28A.93.93,0,0,1,119.7,280.48ZM124,278a.92.92,0,0,1,.38.84,2.81,2.81,0,0,1-1.31,2.26c-.75.44-1.34.09-1.34-.73a2.91,2.91,0,0,1,1.34-2.29A.93.93,0,0,1,124,278Zm4.26-2.55a.92.92,0,0,1,.38.85,2.83,2.83,0,0,1-1.32,2.27c-.75.41-1.33.08-1.33-.77a2.81,2.81,0,0,1,1.33-2.24A1,1,0,0,1,128.22,275.49Zm-41.17-.35a1,1,0,0,1,1,.09,3.14,3.14,0,0,1,1.37,2.43c0,.88-.6,1.24-1.37.8a3.07,3.07,0,0,1-1.4-2.4A1,1,0,0,1,87.05,275.14Zm-4.38-2.56a1,1,0,0,1,1,.1A3.1,3.1,0,0,1,85,275.1c0,.89-.61,1.25-1.37.8a3.1,3.1,0,0,1-1.4-2.4A1,1,0,0,1,82.67,272.58Zm4.38-2.68a1,1,0,0,1,1,.1,3,3,0,0,1,1.37,2.43c0,.88-.6,1.24-1.37.8a3.12,3.12,0,0,1-1.4-2.43A1,1,0,0,1,87.05,269.9Zm-4.38-2.55a1,1,0,0,1,1,.09A3.07,3.07,0,0,1,85,269.87c0,.86-.61,1.24-1.37.8a3.11,3.11,0,0,1-1.4-2.43A.94.94,0,0,1,82.67,267.35Zm37-5a.94.94,0,0,1,.38.86,2.85,2.85,0,0,1-1.32,2.28,1,1,0,0,1-.94.09l-.24-.52L107,271.13l-.34,1.14a2.79,2.79,0,0,1-.94,1c-.74.44-1.32.08-1.32-.73a2.91,2.91,0,0,1,1.32-2.29,1,1,0,0,1,.94-.08l.22.48,10.61-6.13.32-1.07a2.5,2.5,0,0,1,.94-1A1,1,0,0,1,119.7,262.33Zm4.26-2.42a.93.93,0,0,1,.38.85A2.89,2.89,0,0,1,123,263c-.75.41-1.34.09-1.34-.76A2.85,2.85,0,0,1,123,260,.93.93,0,0,1,124,259.91Zm4.26-2.44a.92.92,0,0,1,.38.86,2.88,2.88,0,0,1-1.32,2.27c-.75.41-1.33,0-1.33-.75a2.84,2.84,0,0,1,1.33-2.29A.93.93,0,0,1,128.22,257.47Zm-41.17-.34a1,1,0,0,1,1,.12,3,3,0,0,1,1.37,2.42c0,.86-.6,1.22-1.37.8a3.09,3.09,0,0,1-1.4-2.44A1,1,0,0,1,87.05,257.13Zm-4.38-2.44a1,1,0,0,1,1,.09A3.12,3.12,0,0,1,85,257.21c0,.89-.61,1.24-1.37.8a3.06,3.06,0,0,1-1.4-2.42A1,1,0,0,1,82.67,254.69Zm4.38-2.8a1,1,0,0,1,1,.1,3.05,3.05,0,0,1,1.37,2.41c0,.92-.6,1.25-1.37.84a3.19,3.19,0,0,1-1.4-2.45A1,1,0,0,1,87.05,251.89Zm19.62-.51a.93.93,0,0,1,.39.86,2.89,2.89,0,0,1-1.33,2.27c-.74.41-1.32.09-1.32-.76a2.88,2.88,0,0,1,1.32-2.28A.93.93,0,0,1,106.67,251.38Zm-24-1.93a1,1,0,0,1,1,.1A3.06,3.06,0,0,1,85,252c0,.91-.61,1.27-1.37.83a3.17,3.17,0,0,1-1.4-2.43A1,1,0,0,1,82.67,249.45Zm37-5.25a.91.91,0,0,1,.38.85,2.83,2.83,0,0,1-1.32,2.26c-.75.43-1.33.08-1.33-.76a2.91,2.91,0,0,1,1.33-2.27A1,1,0,0,1,119.7,244.2Zm4.26-2.44a.94.94,0,0,1,.38.86A2.91,2.91,0,0,1,123,244.9c-.75.41-1.34.08-1.34-.77a2.89,2.89,0,0,1,1.34-2.28A1,1,0,0,1,124,241.76Zm4.26-2.55a.92.92,0,0,1,.38.86,2.88,2.88,0,0,1-1.32,2.27c-.75.41-1.33.08-1.33-.77a2.82,2.82,0,0,1,1.33-2.27A.93.93,0,0,1,128.22,239.21Z"/><path class="cls-34" d="M92.58,240l-15.34-8.84h0c-.94-.53-.8-1.49.27-2.13L92.3,220.5h0a4.14,4.14,0,0,1,3.67-.13l15.33,8.84h0c.94.55.83,1.49-.27,2.12l-14.79,8.54h0a4,4,0,0,1-3.66.14"/><path class="cls-36" d="M94.1,232.7,92,231.45h0c-.13,0-.11-.19,0-.28l2-1.19h0a.67.67,0,0,1,.5,0l2.1,1.22h0c.14.09.11.23,0,.31l-2,1.19h0a.57.57,0,0,1-.52,0"/><path class="cls-33" d="M77.24,231.15l.05.06h0a.72.72,0,0,1,.22-.17l14.78-8.53h0a4.07,4.07,0,0,1,3.65-.16l15.27,8.8h0c.88-.6.91-1.46.06-2l-15.33-8.83h0a4.1,4.1,0,0,0-3.65.13L77.51,229h0c-1.07.64-1.21,1.6-.27,2.12"/><path class="cls-2" d="M437.18,443h0c-5.59,3.2-14.61,3.2-20.2,0h0c-5.6-3.25-5.6-8.47,0-11.69h0c5.56-3.23,14.61-3.23,20.2,0h0C442.75,434.55,442.75,439.77,437.18,443Zm11.88-18.54h0c-12.15-7-31.84-7-44,0h0c-12.15,7-12.15,18.38,0,25.39h0c12.13,7,31.82,7,44,0h0C461.19,442.86,461.19,431.49,449.06,424.48Z"/><path class="cls-13" d="M395.25,393.16l5.32,5.66v16.1l-5.32-5.65ZM444.17,389l10.2.13v16.15l-10.2-.17Z"/><path class="cls-12" d="M444,389v11.72l3,.92a39.38,39.38,0,0,1,5.67,2.66c.56.33,1.05.67,1.55,1l-10.15-.17-6.59,6.22h0v0l-4-1.33a28.49,28.49,0,0,0-13.21.13l-5.13,2,0,0-3.48,2.94-11.09-.2-5.32-5.66a21.36,21.36,0,0,1,2.81-2.59L400.6,405v-6.24l11,.17v1.41h0v-1.41s-.25-4.06.5-4.25,15-4.55,15-4.55l10.39,5Z"/><path class="cls-14" d="M400.56,398.79l11.07.17h0a11.75,11.75,0,0,1,3.5-2.95h0c6.08-3.51,15.67-3.78,22.3-.83L444,389l10.14.14h0c-.5-.3-1-.64-1.55-.94h0c-14.09-8.16-36.92-8.16-51,0h0a25.87,25.87,0,0,0-6.33,4.94l5.31,5.65"/><path class="cls-10" d="M440.82,397.16s8.6,3.38,8.79,3.63a38,38,0,0,1,.48,4.53l.2,2.61,5.56.08,7.41-5.86.05,17.13-.21.2-.09,1.88c-.85,4.58-4.3,9-10.36,12.56a49.13,49.13,0,0,1-18.47,5.69l.18-.16-.11,0V429l-.73-.77h0l0,0V412s6.47.53,6.58.78c0,.09.22,1.88.42,4.08l.21,2.29,2.92-1.9-.26-.79a9.1,9.1,0,0,0-2.61-3.12l1.93-1.82-1.89.46Z"/><path class="cls-11" d="M446.58,391.7l-5.81,5.46h0c4.82,3.81,4.27,9.22-1.71,12.67h0a20.84,20.84,0,0,1-5.54,2.12l6,6.4-5.35,5h0a48.36,48.36,0,0,0,18.43-5.71h0c12.1-7,13.81-17.77,5.1-25.8l-11.13-.16"/><path class="cls-29" d="M391,403.12l5.48,2.2,32,18.53v4.95H429l5.31,5.6-5.83,5.49h0V440l-.14-.08-7.07-.27a49.15,49.15,0,0,1-19.61-5.82c-6.26-3.62-9.76-8.24-10.46-13l0-1.51-.14-.07Z"/><path class="cls-3" d="M434.1,418.3v16.11l-5.81,5.48v-16.1l5.81-5.49"/><path class="cls-5" d="M434.22,418.3l-5.29-5.62h0a25.14,25.14,0,0,1-13.76-2.81h0c-3.88-2.23-5.48-5.29-4.82-8.24l-12.57-.16-4.85-5.16h0c-4.25,7.25-1.32,15.6,8.68,21.39h0c7.36,4.24,17.15,6.28,26.79,6.09l5.82-5.49"/><path class="cls-10" d="M132,187.77,103.5,171.31h0a1.53,1.53,0,0,0-1.48-.11h0l-2.75,1.57h0s1.21.47,1.92.72v20.72h0a5.39,5.39,0,0,0,2.31,4.38l27.18,15.71v2.45l2.81-1.62h0a2,2,0,0,0,.77-1.82V192.15h0a5.45,5.45,0,0,0-2.28-4.38"/><path class="cls-11" d="M129.27,216.64l-28.54-16.43h0a5.5,5.5,0,0,1-2.31-4.4V174.65h0c0-1.68,1-2.45,2.31-1.74l28.54,16.43h0a5.58,5.58,0,0,1,2.29,4.41v21.13h0c0,1.71-1,2.48-2.29,1.76"/><path class="cls-17" d="M119.3,196.14a2,2,0,0,1,.75.27,4.21,4.21,0,0,1,1.94,3.32c0,1.24-.86,1.74-1.94,1.13a4.27,4.27,0,0,1-1.93-3.34C118.12,196.59,118.6,196.07,119.3,196.14Zm-5.85-3.42a1.77,1.77,0,0,1,.76.26,4.27,4.27,0,0,1,1.94,3.34c0,1.24-.86,1.74-1.94,1.13a4.26,4.26,0,0,1-1.93-3.34C112.28,193.18,112.76,192.66,113.45,192.72Zm-5.84-3.39a1.84,1.84,0,0,1,.76.27,4.18,4.18,0,0,1,1.93,3.31c0,1.25-.85,1.74-1.93,1.14a4.3,4.3,0,0,1-1.93-3.35C106.44,189.77,106.92,189.26,107.61,189.33Z"/><path class="cls-34" d="M115.7,161.15,87.22,144.71h0a1.46,1.46,0,0,0-1.48-.11h0v0L83,146.2h0s1.23.41,2,.69v20.73h0A5.48,5.48,0,0,0,87.22,172l27.21,15.73v2.42l2.78-1.6h0a1.93,1.93,0,0,0,.77-1.82v-21.2h0a5.6,5.6,0,0,0-2.25-4.38"/><path class="cls-35" d="M112.87,190.13,84.42,173.67h0a5.44,5.44,0,0,1-2.28-4.39v-21.2h0c0-1.68,1-2.48,2.28-1.74l28.45,16.46h0a5.54,5.54,0,0,1,2.29,4.39v21.23h0c0,1.69-1,2.46-2.29,1.71"/><path class="cls-17" d="M103,169.53a1.89,1.89,0,0,1,.75.25,4.39,4.39,0,0,1,1.94,3.35c0,1.24-.89,1.74-1.94,1.1a4.23,4.23,0,0,1-1.93-3.34C101.84,170,102.32,169.48,103,169.53Zm-5.85-3.41a1.88,1.88,0,0,1,.76.25,4.3,4.3,0,0,1,1.93,3.35c0,1.24-.85,1.74-1.93,1.1A4.19,4.19,0,0,1,96,167.48C96,166.57,96.48,166.06,97.17,166.12Zm-5.84-3.41a2,2,0,0,1,.76.26A4.4,4.4,0,0,1,94,166.33c0,1.25-.88,1.72-1.93,1.11a4.18,4.18,0,0,1-1.94-3.33C90.15,163.17,90.64,162.66,91.33,162.71Z"/><path class="cls-13" d="M43.74,386.86,15.29,370.43h0a1.47,1.47,0,0,0-1.48-.13h0l-2.75,1.56h0l1.92.72v20.75h0a5.52,5.52,0,0,0,2.31,4.38l27.18,15.71v2.42l2.81-1.59,0,0h0A2,2,0,0,0,46,412.4V391.24h0a5.45,5.45,0,0,0-2.28-4.38"/><path class="cls-12" d="M45.28,414.25l0,0h0a2,2,0,0,0,.77-1.81V391.26h0a5.37,5.37,0,0,0-.63-2.48L22.6,401.93l19.87,11.49v2.42l2.81-1.59"/><path class="cls-14" d="M41.06,415.73,12.5,399.31h0a5.57,5.57,0,0,1-2.29-4.38V373.77h0c0-1.71,1-2.48,2.29-1.76l28.56,16.43h0a5.59,5.59,0,0,1,2.29,4.4V414h0c0,1.68-1,2.45-2.29,1.73"/><path class="cls-19" d="M352.59,383h0a5.2,5.2,0,0,0,2.92-3.63h0c.22-1.47-.71-2.25-2.08-1.72h0a5.22,5.22,0,0,0-2.92,3.63h0c-.22,1.47.71,2.25,2.08,1.72"/><path class="cls-12" d="M11.06,371.9,26.76,394l15.91-3.52-12.62,4.1,12.5,21.39L28.78,395l-2.38.78-1.48-2.3L11.18,398l13-5.77Z"/><path class="cls-10" d="M18.2,373.77h0c0-4.89-3.46-10.83-7.71-13.31h0c-2.07-1.18-4-1.32-5.34-.57h0l-.11,0H5s0,0,0,0l-2.71,1.54,1.27-.08h0a7.27,7.27,0,0,0-.8,3.52h0a16.93,16.93,0,0,0,7.71,13.28h0a7.55,7.55,0,0,0,3.15,1.05h0l-.58,1.12,2.79-1.59h0l.16-.08.14-.09h0c1.29-.85,2.07-2.5,2.07-4.84"/><path class="cls-11" d="M15.4,375.4h0c0,4.9-3.45,6.92-7.7,4.44h0A16.92,16.92,0,0,1,0,366.52H0c0-4.91,3.42-6.89,7.7-4.44h0a17,17,0,0,1,7.7,13.32"/><path class="cls-17" d="M7.51,375.86h0a3.42,3.42,0,0,1-1.06-.81h0a4.74,4.74,0,0,1-.69-1h0a5.34,5.34,0,0,1-.3-1.14h0a5.56,5.56,0,0,1-.11-1.27l1.41.83h0c0,.25,0,.47,0,.66h0a2.83,2.83,0,0,0,.11.58h0a1.18,1.18,0,0,0,.25.5h0a.86.86,0,0,0,.41.36h0a.43.43,0,0,0,.25.09h0a.21.21,0,0,0,.19,0H8c.09,0,.14-.09.17-.17h0c0-.11.06-.19.08-.28h0c0-.08,0-.22,0-.38h0v-.44h0a2.44,2.44,0,0,0,0-.53h0c0-.25,0-.44,0-.61h0c0-.16,0-.36,0-.55h0a1.14,1.14,0,0,0-.14-.47h0a1,1,0,0,0-.22-.39h0a1,1,0,0,0-.36-.27h0a.57.57,0,0,0-.5-.09H7a.76.76,0,0,0-.28.47l-1.25-.74.06-5.37,3.85,2.21v1.52l-2.6-1.49-.12,2.27h0a.55.55,0,0,1,.48-.08h0a1.56,1.56,0,0,1,.66.22h0a3,3,0,0,1,.89.69h0a4.54,4.54,0,0,1,.58.94h0a4.25,4.25,0,0,1,.3,1.13h0a6.57,6.57,0,0,1,.11,1.3h0c0,.42,0,.8,0,1.11h0a3.19,3.19,0,0,1-.22.85h0a1.09,1.09,0,0,1-.38.59h0a1.15,1.15,0,0,1-.64.11h0a2.33,2.33,0,0,1-.91-.36"/><path class="cls-24" d="M363.66,363.31,366.5,365a1.83,1.83,0,0,1,.74,1.46v3c0,.55-.33.8-.74.58l-2.84-1.66a1.87,1.87,0,0,1-.77-1.47v-3C362.89,363.34,363.25,363.09,363.66,363.31Zm-13.27-5.95a1,1,0,0,1,1,.09,3.12,3.12,0,0,1,1.39,2.44.84.84,0,0,1-1.39.78,3,3,0,0,1-1.38-2.4A1,1,0,0,1,350.39,357.36Zm-4.86-2.92a.94.94,0,0,1,1,.09,3.08,3.08,0,0,1,1.39,2.41c0,.89-.61,1.26-1.39.81a3.13,3.13,0,0,1-1.38-2.41A1,1,0,0,1,345.53,354.44Zm-4.88-2.81a1,1,0,0,1,1,.1,3.11,3.11,0,0,1,1.38,2.39c0,.92-.64,1.28-1.38.81a3,3,0,0,1-1.39-2.39A1,1,0,0,1,340.65,351.63Zm23-8.52,2.84,1.65a1.87,1.87,0,0,1,.74,1.46v3c0,.55-.33.82-.74.57l-2.84-1.62a1.94,1.94,0,0,1-.77-1.48v-3C362.89,343.14,363.25,342.89,363.66,343.11Zm-48.75-6.55a.74.74,0,0,1,.84,0l8.41,4.89a2.92,2.92,0,0,1,1.21,2.3c0,.89-.55,1.28-1.21.89l-8.41-4.88a2.81,2.81,0,0,1-1.18-2.31A1.12,1.12,0,0,1,314.91,336.56ZM343.69,333a1,1,0,0,1,1,.1,3.12,3.12,0,0,1,1.38,2.42c0,.88-.63,1.25-1.38.8a3.05,3.05,0,0,1-1.39-2.42A1,1,0,0,1,343.69,333Zm-4.86-2.8a1,1,0,0,1,1,.1,3.07,3.07,0,0,1,1.39,2.41c0,.89-.64,1.26-1.39.81a3.08,3.08,0,0,1-1.39-2.43A1,1,0,0,1,338.83,330.21ZM334,327.29a1,1,0,0,1,1,.1,3.13,3.13,0,0,1,1.39,2.41c0,.89-.64,1.25-1.39.81a3.07,3.07,0,0,1-1.38-2.42A1,1,0,0,1,334,327.29Zm-4.86-2.78a.94.94,0,0,1,1,.11,3,3,0,0,1,1.37,2.39c0,.88-.63,1.25-1.37.8a3.08,3.08,0,0,1-1.4-2.39A1,1,0,0,1,329.1,324.51ZM363.66,323l2.84,1.65a1.84,1.84,0,0,1,.74,1.45v3c0,.55-.33.83-.74.58l-2.84-1.62a1.91,1.91,0,0,1-.77-1.49v-3C362.89,323.05,363.25,322.81,363.66,323Zm-48.75-6.68a.71.71,0,0,1,.84,0l8.41,4.89a2.89,2.89,0,0,1,1.21,2.3c0,.89-.55,1.28-1.21.92l-8.41-4.89a3,3,0,0,1-1.18-2.31A1.16,1.16,0,0,1,314.91,316.35Zm28.78-3.53a1,1,0,0,1,1,.11,3,3,0,0,1,1.38,2.39c0,.89-.63,1.25-1.38.81a3.06,3.06,0,0,1-1.39-2.39A1,1,0,0,1,343.69,312.82Zm-4.86-2.8a1,1,0,0,1,1,.11,3,3,0,0,1,1.39,2.39c0,.89-.64,1.25-1.39.81a3,3,0,0,1-1.39-2.42A1,1,0,0,1,338.83,310ZM334,307.21a1,1,0,0,1,1,.12,3.06,3.06,0,0,1,1.39,2.37c0,.89-.64,1.27-1.39.8a3,3,0,0,1-1.38-2.37A1,1,0,0,1,334,307.21Zm-4.86-2.8a1,1,0,0,1,1,.1,3.07,3.07,0,0,1,1.37,2.4c0,.9-.63,1.26-1.37.81a3,3,0,0,1-1.4-2.43A1,1,0,0,1,329.1,304.41Zm34-1.57a.46.46,0,0,1,.54,0l2.84,1.62a1.87,1.87,0,0,1,.74,1.46v3c0,.55-.33.82-.74.58l-2.84-1.63a1.86,1.86,0,0,1-.77-1.45v-3A.72.72,0,0,1,363.12,302.84Zm-48.21-6.57a.74.74,0,0,1,.84,0l8.41,4.88a2.89,2.89,0,0,1,1.21,2.29c0,.89-.55,1.3-1.21.92l-8.41-4.87a2.9,2.9,0,0,1-1.18-2.3A1.19,1.19,0,0,1,314.91,296.27Zm28.78-3.55a1,1,0,0,1,1,.1,3.06,3.06,0,0,1,1.38,2.41c0,.89-.63,1.26-1.38.81a3,3,0,0,1-1.39-2.43A1,1,0,0,1,343.69,292.72Zm-4.86-2.91a.93.93,0,0,1,1,.12,3.13,3.13,0,0,1,1.39,2.39c0,.89-.64,1.25-1.39.8a3,3,0,0,1-1.39-2.39A1,1,0,0,1,338.83,289.81ZM334,287a1,1,0,0,1,1,.09,3.12,3.12,0,0,1,1.39,2.44.84.84,0,0,1-1.39.78,3,3,0,0,1-1.38-2.4A1,1,0,0,1,334,287Zm-4.86-2.8a1,1,0,0,1,1,.09,3.17,3.17,0,0,1,1.37,2.41c0,.89-.63,1.26-1.37.81a3.07,3.07,0,0,1-1.4-2.4A1,1,0,0,1,329.1,284.21Zm34-1.45a.45.45,0,0,1,.54,0l2.84,1.62a1.89,1.89,0,0,1,.74,1.49v3c0,.57-.33.82-.74.6l-2.84-1.65a1.9,1.9,0,0,1-.77-1.46v-3A.7.7,0,0,1,363.12,282.76Zm-48.21-6.69a.72.72,0,0,1,.84,0l8.41,4.9a2.82,2.82,0,0,1,1.21,2.3c0,.85-.55,1.27-1.21.88l-8.41-4.87a2.88,2.88,0,0,1-1.18-2.3A1.16,1.16,0,0,1,314.91,276.07Zm28.78-3.55a1,1,0,0,1,1,.1,3.15,3.15,0,0,1,1.38,2.4c0,.9-.63,1.26-1.38.82a3,3,0,0,1-1.39-2.41A1,1,0,0,1,343.69,272.52Zm-4.86-2.8a1,1,0,0,1,1,.1,3.13,3.13,0,0,1,1.39,2.39c0,.91-.64,1.27-1.39.83a3.1,3.1,0,0,1-1.39-2.42A1,1,0,0,1,338.83,269.72Zm-4.87-2.8a1,1,0,0,1,1,.1,3.17,3.17,0,0,1,1.39,2.43c0,.87-.64,1.23-1.39.79a3,3,0,0,1-1.38-2.41A1,1,0,0,1,334,266.92Zm-4.86-2.8a1,1,0,0,1,1,.1,3.13,3.13,0,0,1,1.37,2.39c0,.91-.63,1.28-1.37.83a3.14,3.14,0,0,1-1.4-2.42A1,1,0,0,1,329.1,264.12Zm34-1.57a.46.46,0,0,1,.54,0l2.84,1.65a1.83,1.83,0,0,1,.74,1.46v3c0,.58-.33.83-.74.58l-2.84-1.62a1.9,1.9,0,0,1-.77-1.46v-3A.72.72,0,0,1,363.12,262.55ZM314.91,256a.75.75,0,0,1,.84,0l8.41,4.83a2.87,2.87,0,0,1,1.21,2.25c0,.91-.55,1.3-1.21.91l-8.41-4.81a2.84,2.84,0,0,1-1.18-2.28A1.1,1.1,0,0,1,314.91,256Zm28.78-3.53a1,1,0,0,1,1,.09,3.13,3.13,0,0,1,1.38,2.39c0,.92-.63,1.28-1.38.84a3.11,3.11,0,0,1-1.39-2.42A1,1,0,0,1,343.69,252.44Zm-4.86-2.8a.94.94,0,0,1,1,.1,3.08,3.08,0,0,1,1.39,2.41.86.86,0,0,1-1.39.81,3.07,3.07,0,0,1-1.39-2.42A1,1,0,0,1,338.83,249.64Zm-4.87-2.8a.94.94,0,0,1,1,.1,3.11,3.11,0,0,1,1.39,2.41c0,.89-.64,1.25-1.39.78a3,3,0,0,1-1.38-2.39A1,1,0,0,1,334,246.84ZM329.1,244a1,1,0,0,1,1,.1,3.12,3.12,0,0,1,1.37,2.41c0,.89-.63,1.25-1.37.81a3.1,3.1,0,0,1-1.4-2.42A1,1,0,0,1,329.1,244Zm34.56-1.59,2.84,1.65a1.83,1.83,0,0,1,.74,1.46v3c0,.55-.33.82-.74.58l-2.84-1.65a1.85,1.85,0,0,1-.77-1.46v-3C362.89,242.48,363.25,242.23,363.66,242.45Zm-48.75-6.56a.73.73,0,0,1,.84,0l8.41,4.91a2.92,2.92,0,0,1,1.21,2.31c0,.89-.55,1.27-1.21.89l-8.41-4.89a2.86,2.86,0,0,1-1.18-2.31A1.12,1.12,0,0,1,314.91,235.89Zm28.78-3.66a1,1,0,0,1,1,.1,3.12,3.12,0,0,1,1.38,2.42c0,.89-.63,1.25-1.38.8a3,3,0,0,1-1.39-2.41A1,1,0,0,1,343.69,232.23Zm-4.86-2.8a1,1,0,0,1,1,.1A3.15,3.15,0,0,1,341.2,232c0,.86-.64,1.25-1.39.8a3,3,0,0,1-1.39-2.41A1,1,0,0,1,338.83,229.43Zm-4.87-2.8a1,1,0,0,1,1,.1,3.15,3.15,0,0,1,1.39,2.42c0,.89-.64,1.25-1.39.8a3,3,0,0,1-1.38-2.41A1,1,0,0,1,334,226.63Zm-4.86-2.79a1,1,0,0,1,1,.12,3.05,3.05,0,0,1,1.37,2.39c0,.89-.63,1.25-1.37.8a3.07,3.07,0,0,1-1.4-2.41A1,1,0,0,1,329.1,223.84Zm-14.19-8.15a.74.74,0,0,1,.84,0l8.41,4.89a2.91,2.91,0,0,1,1.21,2.3c0,.89-.55,1.28-1.21.92l-8.41-4.89a3,3,0,0,1-1.18-2.3A1.17,1.17,0,0,1,314.91,215.69Zm26.44-6.32h2.16v3.26a3.06,3.06,0,0,1-2.16.14Z"/><path class="cls-14" d="M373.43,385.75l12.08,9.81v0l.43.68a2.19,2.19,0,0,1,0,1,5.63,5.63,0,0,1-3.21,3.92,2.56,2.56,0,0,1-1,.18l-.73-.27,0,.06-12.08-9.85Z"/><path class="cls-2" d="M348.58,515.54h0c-11,6.35-28.89,6.35-39.88,0h0c-11-6.4-11-16.71,0-23.09h0c11-6.37,28.87-6.37,39.88,0h0c11,6.38,11,16.72,0,23.09"/><path class="cls-12" d="M342.07,497h0a4.4,4.4,0,0,1,2.47,4.35h0a9.05,9.05,0,0,1-.35,2.12h0c-.5,1.08-2.18,2.54-4.82,1.49h0c-2.65-1.05-8.51-6.58-8.73-10.19h0c-.42-6.72,7.24.44,11.43,2.23"/><path class="cls-12" d="M326.53,508h0s.63,3.88.33,4.57h0a5,5,0,0,1-4.88,1.9h0c-2.72-.33-10.53-3-12.27-8.18h0c-2.69-8,15.11.61,15.11.61l1.71,1.1"/><path class="cls-14" d="M319,446.18l-.63,60.46h0a4.3,4.3,0,0,0,3.31,4.22h0c.22,0,.47.05.74.05h0a3.73,3.73,0,0,0,3.59-1.46h0a4.58,4.58,0,0,0,.83-2.45l.75-25.81,3.86-23.07L336.76,499h0a3.57,3.57,0,0,0,1.46,2.7h0a4.09,4.09,0,0,0,2.4.66h0a4.54,4.54,0,0,0,3.26-1.6h0a3.16,3.16,0,0,0,.77-2.18l-2.12-24.59-.77-31.35L319,446.18"/><path class="cls-1" d="M326.8,392.06l.94,5.54h0a2.57,2.57,0,0,1-2.05,2.44h0c-2.13.5-2.76-.86-2.76-.86L322,393l4.84-.89"/><path class="cls-1" d="M315.6,392.36h0c3.5,3.5,8.89,3.8,12,.66h0c3.09-3.14,2.76-8.52-.75-12h0c-3.51-3.5-8.87-3.78-12-.66h0c-3.13,3.14-2.79,8.52.72,12"/><path class="cls-12" d="M331.32,458.14l5.35,40.76h0a3.58,3.58,0,0,0,1.47,2.7h0a2.65,2.65,0,0,0,.44.25h0c-1.11-.83-4.34-35.07-4.94-38.86h0c-.58-3.8-2.32-4.85-2.32-4.85"/><path class="cls-1" d="M339.11,363.23a1.35,1.35,0,0,1,.85.51l.53.63,1.87,3.08a4.08,4.08,0,0,1,.55,1.83l.06,1.84h0l3.54,16.23-5.34-2.75-1-12.79-1.76-2.47-2-.83a.45.45,0,0,1-.28-.46.47.47,0,0,1,.53-.36l1.21.25-1-2.63a1.71,1.71,0,0,1,.83-1.59l.44-.28A1.36,1.36,0,0,1,339.11,363.23Z"/><path class="cls-5" d="M341.86,383.37c1.62.22,4.13.69,4.46,1.8.43,1.43,1.22,7.7-3.05,17.47l-1.95,4,.38,1.85c2.07,13,1.59,31.16.34,34.18-1.55,3.69-5.42,6.45-8.12,8a16,16,0,0,1-7.88,2.23c-2.77,0-8-2.43-7.82-6a204.49,204.49,0,0,0-.13-23.05l-.55-7.16-.73-1c-4.52-4.34-15.86-7.05-18.18-15.57-.61-2.21.58-4.25,1.44-5.57a1.18,1.18,0,0,1,1.14-.5,1.49,1.49,0,0,1,1.13.74c4.76,8.72,11.91,8.5,13.63,8.31l.31-.05h0s1.69-1.82,10.28-5.27a17.7,17.7,0,0,1,6.93-2.48l1.62.12.5-.13a5.92,5.92,0,0,0,4.23-4.88,40.29,40.29,0,0,0,.67-5.89A1.25,1.25,0,0,1,341.86,383.37Z"/><path class="cls-1" d="M295.66,375.1l.49.11a1.77,1.77,0,0,1,1.32,1.24l0,2.81,1.07-.64a.43.43,0,0,1,.52.69l-1.59,1.43-.82,2.94,5.28,11.49-3.37,4.44L293.78,384h-.06l-.58-1.76a3.81,3.81,0,0,1-.08-1.93l.71-3.52L294,376A1.39,1.39,0,0,1,295.66,375.1Z"/><path class="cls-3" d="M320.25,414.76h0c.77,3.55-1.4,31.15,5.69,38h0c-2.75,0-8-2.42-7.78-6h0a225.36,225.36,0,0,0-.63-30.27h0c-2.8-3.63-10.44-5.92-15.25-10.58h0c.35.14,17.2,5.32,18,8.85"/><path class="cls-17" d="M329.71,396.26,328.52,395h0s-2,2.08-3.62,2.41h0A16.83,16.83,0,0,1,322,398l-.78,2.19h0s6.38-.44,8.48-3.91"/><path class="cls-12" d="M320.66,389.73h0a1,1,0,0,1-.93,0h0c-.52-.27-1.35-2.31-2.45-2.17h0c-1.67.24-4.09,3.77-7.12-1.16h0c-1.56-2.57-.66-3.94-1.43-5.4h0s.28.8,6.88-3.26h0c6.59-4,12,.89,13.66,3.7h0c1.68,2.81,2.75,8.32-1.57,11.41h0c-.74.52-5.33-.42-5.44-.77h0c-.08-.39,1.15-1,.44-1.93h0a1.45,1.45,0,0,0-2-.42"/><path class="cls-14" d="M266.73,505.49h0a.61.61,0,0,1-.44-.14l-28.36-16.81h0a.86.86,0,0,1-.31-1.18h0a.84.84,0,0,1,1.19-.3l28.36,16.8h0a.87.87,0,0,1,.31,1.19h0a.93.93,0,0,1-.75.44"/><path class="cls-13" d="M375.35,387.32l4,3.32h0a9.31,9.31,0,0,1-4.52,5.52l-4.08-3.31h0a9.46,9.46,0,0,1,4.55-5.53"/><path class="cls-14" d="M363.38,375.22a2.34,2.34,0,0,1,1,.29l.31.31,0,0,12.32,10-.05.06.38.38a3.31,3.31,0,0,1,.32,2.35,9.11,9.11,0,0,1-5.19,6.39,3.8,3.8,0,0,1-1.67.29l-1.19-.45h0l0,0h0v0l-12.23-10,.06-.06-.09,0a2.87,2.87,0,0,1-.75-2.83,9.18,9.18,0,0,1,5.17-6.4A3.8,3.8,0,0,1,363.38,375.22Z"/><path class="cls-14" d="M270.14,506.22h0a11.26,11.26,0,0,1-5.68-1.6l-7.68-4.57h0a.84.84,0,0,1-.3-1.19h0a.85.85,0,0,1,1.18-.3l7.71,4.55h0a9.14,9.14,0,0,0,9.62,0h0a9.14,9.14,0,0,0,4.4-8.57l-.16-2.31h0c-2.7-38.05-7.74-108.82,22.09-116.45h0c10.27-2.64,17.32-5.18,22.44-7h0c15.29-5.49,16.37-5.18,37.46,10.74h0a.88.88,0,0,1,.17,1.21h0a.85.85,0,0,1-1.21.19h0c-21-15.84-21.24-15.73-35.84-10.52h0a235.07,235.07,0,0,1-22.61,7.05h0c-28.4,7.28-23.44,77.11-20.77,114.63l.17,2.34h0a10.86,10.86,0,0,1-5.24,10.17h0a11,11,0,0,1-5.75,1.65"/><path class="cls-19" d="M374.53,393.85a.85.85,0,0,1,.82.21,2.68,2.68,0,0,1,.84,2.27c-.11.75-.7,1-1.29.5a2.73,2.73,0,0,1-.86-2.26A.89.89,0,0,1,374.53,393.85ZM269.44,358.63a2.49,2.49,0,0,1,1.19.27c.66.41.66,1,0,1.38a2.42,2.42,0,0,1-2.39,0c-.69-.39-.69-1,0-1.38A2.59,2.59,0,0,1,269.44,358.63Z"/><path class="cls-2" d="M45.63,335.72h0c-7.05,4.08-18.5,4.08-25.55,0h0C13,331.64,13,325,20.08,321h0c7.05-4.08,18.47-4.08,25.55,0h0c7.07,4.08,7.07,10.69,0,14.77"/><path class="cls-29" d="M21.51,196.37h0s.49,10,1.23,16.7h0c.78,6.72,17-5.14,17-5.14v-7.65l-18.19-3.91"/><path class="cls-25" d="M30.08,320.78h0c.25.58,4.43,5.7,8.64,7h0a9.94,9.94,0,0,0,3.82.55h0a1.3,1.3,0,0,0,1.05-1.71h0a16,16,0,0,0-8-8.87h0c-7.13-3.52-5.48,3.06-5.48,3.06"/><path class="cls-25" d="M28.6,322.7h0a35.18,35.18,0,0,1,2,6.83h0c.31,1.9-.74,4.36-1.59,6h0a1.72,1.72,0,0,1-2.71.47h0A10.26,10.26,0,0,1,23,329.47h0c-.49-5.25,0-6.16,0-6.16l5.63-.61"/><path class="cls-14" d="M18.53,259.56h0a98.67,98.67,0,0,0,0,13.87h0c.55,7.31,2.51,41.46,2.89,49.68h0s-.19,2.48,4.6,2h0c4.81-.56,4.43-3.34,4.43-3.34h0s6.74-.06,7-4.08h0c.22-4,6.91-47.58,6.91-63.22l-25.79,5.13"/><path class="cls-1" d="M46.85,225.4l3.31,5.13,11.41,13.74h0a2.53,2.53,0,0,1-1.82,1.6h0c-1.1.28-10.7-8.84-14.83-12.86h0a3.11,3.11,0,0,1-.42-4l2.35-3.58"/><path class="cls-3" d="M40.46,204.4h0s5.25-.13,7.06,7.47h0c1.84,7.61,3.24,17.14,1.67,17.91h0c-4.77,2.4-7.77-.38-7.77-.38l-1-25"/><path class="cls-5" d="M41.93,204.71h0a4.18,4.18,0,0,0-2.83-.17h0c-4.49,1.3-21.31,6.22-24.09,8.62h0c-3.22,2.72,4.82,18.14,4.68,23.18h0c-.11,5-.66,11-1.13,16.46h0c-.44,5.51-1,8.48,3.44,10.82h0a17.71,17.71,0,0,0,17.9-1.93h0c5.75-4.35,4.68-7.35,4.46-10.51h0c-.25-3.17-2.21-16.91-2-20.79h0a14.41,14.41,0,0,0,3.49-4h0c1.52-2.56-1.15-7.24-2.25-10.29h0c-1.11-3.06.63-6.55.3-9h0a2.77,2.77,0,0,0-2-2.31"/><path class="cls-17" d="M36.55,210h0c.36,2.77-2.17,5.37-5.66,5.81h0c-3.5.47-6.6-1.43-7-4.17h0c-.36-2.76,2.17-5.37,5.66-5.8h0c3.5-.47,6.63,1.42,7,4.16"/><path class="cls-1" d="M34.84,210.17h0c.25,2-1.57,3.88-4.08,4.18h0c-2.49.34-4.72-1-5-3h0c-.24-2,1.58-3.87,4.09-4.18h0c2.51-.33,4.74,1,5,3"/><path class="cls-1" d="M32.29,203.7h0s-3-2.47-3.62-1.21h0c-.6,1.27-1.09,6.69-1.09,6.69l6,1.62-.9-5.5h0s1.2-1-.38-1.6"/><path class="cls-1" d="M41.71,197.66h0a9,9,0,0,1-9.53,8.44h0a9,9,0,0,1-8.45-9.49h0a9,9,0,0,1,9.52-8.47h0a9,9,0,0,1,8.46,9.52"/><path class="cls-30" d="M28.21,204h0c0,.28-.09.59-.14.92h0c.61,3.16,5.32,4.54,5.32,4.54l-.7-4.21h0s.58-.5.42-1h0c-1.86-.58-4.24-1.11-4.9-.28"/><path class="cls-1" d="M41.71,197.66h0a9,9,0,0,1-9.53,8.44h0a9,9,0,0,1-8.45-9.49h0a9,9,0,0,1,9.52-8.47h0a9,9,0,0,1,8.46,9.52"/><path class="cls-1" d="M10.57,235.36l1,24.16,3.5.35,2.27-21.72-6.78-2.79"/><path class="cls-3" d="M22.11,233.34h0c-1.19-5.18-3.49-16.56-3.49-16.56l-1,11.32h0c1.13,3.37,2.13,6.45,2.08,8.24h0c-.06,2.95-.28,6.26-.56,9.54v0h0s4.16-7.44,3-12.56"/><path class="cls-29" d="M15.72,212.65h0s-2.82,1.1-4.42,9.76h0c-1.61,8.68-2.79,17.34,0,18.47h0c2.87,1.13,5.25,2,6.08-.36h0c.83-2.31,1.35-13.48,1.46-17.5h0c.11-4,.28-9.57-3.17-10.37"/><path class="cls-12" d="M30.5,321.7h0a12.14,12.14,0,0,0,1.91-.19l1.34-53.11L30.5,321.7"/><path class="cls-3" d="M25.34,293l-1.88-2.43L3.72,279.14h0A2.6,2.6,0,0,1,2.59,277V260.77l-1.13-1.43,1.07-.64h0a.71.71,0,0,1,.77.06l22.37,12.93h0a2.76,2.76,0,0,1,1.15,2.21l0,17.62h0a1,1,0,0,1-.42.91l-1,.61"/><path class="cls-29" d="M11.73,283.68l-1.41-.82L2.59,269.53v-8.77l-1.13-1.43,1.07-.63h0a.73.73,0,0,1,.78.06l22.42,12.89h0a2.37,2.37,0,0,1,.85,1L11.73,283.68"/><path class="cls-29" d="M2,260l-.53-.64,1.1-.65h0a.73.73,0,0,1,.78.06l.4.23L2,260"/><path class="cls-3" d="M25.88,271.81h0a2.74,2.74,0,0,1,.94,1.89l-2.19,1.24-1.06-1.79,2.31-1.34"/><path class="cls-5" d="M24.58,272.35,2.25,259.41h0c-.63-.36-1.13,0-1.13.88l0,17.6h0a2.74,2.74,0,0,0,1.16,2.18l22.33,13h0c.63.36,1.12,0,1.12-.85l0-17.63h0a2.81,2.81,0,0,0-1.15-2.21"/><path class="cls-1" d="M11.63,259.34h0a53.61,53.61,0,0,0-.8,7.41h0c.14,1.79,1.11,4.78,1.86,4.7h0c.74-.05,0-7.24,1.33-6.52h0c1.27.72,1.41,1.93,2,1.51h0c.61-.44-1-6.55-.58-9.21h0c.41-2.67-3.8,2.11-3.8,2.11"/><path class="cls-30" d="M36.27,197.92h0c4.55,1.58,5.4.63,5.46.54h0c0-.27.08-.54.08-.82h0a8.92,8.92,0,0,0-.28-2.84l-11.76-1.59h0a12.85,12.85,0,0,0,6.5,4.71"/><path class="cls-29" d="M42.07,188.81h0c-1-.91-4.9-5.44-11.78-4.36h0c-4.29.66-7.95,3.61-8.72,10.31h0A15.44,15.44,0,0,0,25.72,207h0a3.48,3.48,0,0,1,.47-.24h0c1.74-1.14,1.93-1.77,1.93-1.77l.38-3.45h0a.94.94,0,0,0-.85-.93h0a1.89,1.89,0,0,1-1.29-.78h0c-1-1.29-.53-3.33,1.46-3.39h0a1.47,1.47,0,0,0,1.56-1.13h0a.83.83,0,0,1,1.08-.55h0c2.25.83,7.78,2.56,11.36,1.57h0c4.57-1.29,1.32-6.64.25-7.55"/><path class="cls-17" d="M37,202.12l2.74-.77h0a6.64,6.64,0,0,1-3.24,2.58h0c-1.92.55-2.2-1.1-2.2-1.1l2.7-.71"/><path class="cls-29" d="M16.37,266.27,14,264.88l.91,1.47,1.21.45.28-.53"/></g></g></svg>